<?xml version="1.0" encoding="UTF-8"?><!DOCTYPE svg PUBLIC "-//W3C//DTD SVG 1.1//EN" "http://www.w3.org/Graphics/SVG/1.1/DTD/svg11.dtd"><svg xmlns="http://www.w3.org/2000/svg"><symbol id="pcc-icon-alert" viewBox="0 0 52 52"><path d="M39.626 34.664L28.114 14.2l-.013-.014c-.577-.43-1.335-.644-2.094-.643-.757 0-1.516.214-2.094.643l-.013.014-11.513 20.464c-1.155.86-1.155 2.25 0 3.11.643.478 1.502.662 2.342.608l22.76.075c.835 0 1.582-.262 2.12-.675l.015-.008c.26-.194.444-.42.587-.657l.003-.003c.488-.81.303-1.786-.59-2.45zM27.84 33.92c-.003.866-.823 1.57-1.832 1.574-1.01.002-1.825-.7-1.822-1.566l.024.02c.003-.868.823-1.573 1.832-1.576 1.01-.002 1.825.7 1.823 1.567l-.025-.02zm0-4.975c-.003.867-.823 1.572-1.832 1.575-1.01.002-1.825-.7-1.822-1.566l.024-7.94c.003-.866.823-1.57 1.832-1.574 1.01-.002 1.825.7 1.823 1.567l-.025 7.94z"/></symbol><symbol id="pcc-icon-all" viewBox="0 0 52 52"><path d="M34.136 30.432V14.51h-9.174v-3.53h12.723V30.43h-3.55zm-1.774 5.295h-3.55V19.804H19.64v-3.53H32.36V35.73zm-5.323 5.295H14.315V21.57H27.04V41.02z"/></symbol><symbol id="pcc-icon-annotate-arrow" viewBox="0 0 52 52"><path d="M40.962 37.325L24.155 20.607l6.618-6.287-19.736-2.968 2.515 19.33 7.185-6.827L37.62 40.65z"/></symbol><symbol id="pcc-icon-annotate-disabled" viewBox="0 0 52 52"><path d="M39.88 17.47l.01.01-.048.046-.01.016-.017.01-4.306 4.283c-1.154-.476-2.416-.745-3.742-.745-5.393 0-9.764 4.348-9.764 9.713 0 1.32.27 2.575.75 3.722l-4.31 4.285-.01-.01c-.138.195-.333.342-.59.342-.237 0-.44-.112-.58-.28l-4.2-4.14c-.154-.153-.227-.353-.224-.553v-.006c0-.257.147-.45.342-.588l-.053-.054 21.356-21.245.02-.032.034-.02.034-.035.007.007c1.476-1.4 3.803-1.393 5.252.05 1.45 1.44 1.455 3.755.05 5.222zm-8.293-3.775l-.017.017-.004.005-.006.004-7.842 7.802-.004.005-.006.004-.088.09-.018-.02c-.522.423-1.28.41-1.767-.073s-.498-1.238-.074-1.758l-.016-.018.084-.083.008-.012.01-.008 7.833-7.792.007-.01.012-.008.01-.013.004.003c.52-.493 1.342-.49 1.853.017.51.51.513 1.326.017 1.844l.004.004zm-14.74 26.378v.005c0 .422-.344.764-.768.764h-4.237c-.212 0-.405-.085-.544-.223-.14-.14-.227-.33-.227-.542v-4.213c0-.422.345-.765.77-.765.235 0 .44.113.58.28l4.2 4.14c.152.152.225.353.222.553zM31.73 22.838c4.403 0 7.97 3.55 7.97 7.93 0 4.377-3.567 7.927-7.97 7.927s-7.97-3.55-7.97-7.928c0-4.38 3.57-7.93 7.97-7.93zm.05 13.717c3.193 0 5.78-2.575 5.78-5.75 0-1.13-.34-2.177-.904-3.065L28.7 35.655c.893.563 1.944.9 3.08.9zm-4.6-2.3l8.068-8.025c-.968-.728-2.16-1.176-3.468-1.176-3.193 0-5.78 2.575-5.78 5.75 0 1.3.45 2.487 1.18 3.45z"/></symbol><symbol id="pcc-icon-annotate-ellipse-filled" viewBox="0 0 52 52"><path d="M26 11.148c8.246 0 14.93 6.65 14.93 14.852 0 8.203-6.684 14.853-14.93 14.853-8.246 0-14.93-6.65-14.93-14.853 0-8.202 6.684-14.852 14.93-14.852z"/></symbol><symbol id="pcc-icon-annotate-ellipse" viewBox="0 0 52 52"><path d="M26 11.197c-8.218 0-14.88 6.628-14.88 14.803S17.78 40.802 26 40.802 40.88 34.175 40.88 26 34.22 11.197 26 11.197zm-.047 25.457c-5.94 0-10.758-4.79-10.758-10.7 0-5.91 4.816-10.7 10.758-10.7 5.94 0 10.758 4.79 10.758 10.7 0 5.91-4.816 10.7-10.757 10.7z"/></symbol><symbol id="pcc-icon-annotate-freehand" viewBox="0 0 52 52"><path d="M35.315 18.662c-1.99-2.008-5.266-4.488-6.133-3.6-.78.795 2.19 3.055 4.114 5.118h-.002c3.382 3.7 5.99 8.505 1.747 11.656-1.93 1.434-6.666-1.025-10.238-4.678l.033-.03c-2.022-1.983-5.426-4.504-6.196-3.754-.855.83 2.232 3.5 4.156 5.565 3.368 3.657 5.454 8.738 2.916 10.536-3.37 2.385-8.085.407-11.656-3.246l2.808-2.808c1.99 2.008 4.88 3.828 5.612 3.115.583-.568-1.272-3.104-3.195-5.167l.004-.002c-3.353-3.7-5.857-8.148-3.165-10.37 2.924-2.412 8.38-.11 11.952 3.543l-.03.027c2.01 1.96 4.255 3.985 4.99 3.393.785-.63-1.478-3.286-3.4-5.35-3.365-3.676-6.03-7.697-2.84-9.926 4.147-2.896 7.58-.1 11.153 3.554l-2.63 2.423z"/></symbol><symbol id="pcc-icon-annotate-line" viewBox="0 0 52 52"><path d="M14.72 40.74l-3.537-3.52L37.28 11.26l3.538 3.52L14.72 40.74z"/></symbol><symbol id="pcc-icon-annotate-polyline" viewBox="0 0 52 52"><path d="M38.5 30.5v-6h-6v.566L19.5 22v-.336l10-3.877V19.5h6v-6h-6v2.127l-10 3.878V18.5h-6v6h6v-.445l13 3.067v1.158L22.066 32.5H16.5v6h6v-4.15l11-3.85h5z"/></symbol><symbol id="pcc-icon-annotate-rectangle-filled" viewBox="0 0 52 52"><path d="M10.99 11.095h30.02v29.81H10.99v-29.81z"/></symbol><symbol id="pcc-icon-annotate-rectangle" viewBox="0 0 52 52"><path d="M11.125 11.23V40.77h29.75V11.23h-29.75zm25.26 24.565h-20.86v-20.54h20.86v20.54z"/></symbol><symbol id="pcc-icon-annotate-stamp" viewBox="0 0 52 52"><path d="M37.74 40.343H14.26c-1.817 0-3.29-1.464-3.29-3.27v-1.357h30.06v1.356c0 1.807-1.473 3.27-3.29 3.27zm-26.77-9.37c0-1.806 1.473-3.27 3.29-3.27h9.018v-4.308c.874.16 1.786.254 2.73.254.943 0 1.85-.094 2.723-.253v4.305h9.01c1.817 0 3.29 1.465 3.29 3.27v2.97H10.97v-2.97zm15.044-9.543c-3.8 0-6.882-2.188-6.882-4.887 0-2.698 3.082-4.887 6.882-4.887s6.882 2.188 6.882 4.887c0 2.7-3.08 4.887-6.882 4.887z"/></symbol><symbol id="pcc-icon-annotate-text" viewBox="0 0 52 52"><path d="M27.937 40.708V14.763h9.783v-3.47H14.28v3.47h9.743v25.945h3.913z"/></symbol><symbol id="pcc-icon-annotation-add" viewBox="0 0 52 52"><path d="M24.226 35.773l-2.872-2.832c-.097-.113-.235-.19-.397-.19-.29 0-.525.235-.525.523v2.881c0 .144.058.275.153.37.095.095.227.153.372.153h2.896c.29 0 .525-.234.525-.522v-.002c0-.138-.048-.275-.153-.38zM27.79 23.47c.332.33.85.338 1.208.05l.013.013.06-.06.005-.003.003-.003 5.362-5.335h.004l.002-.005.012-.012-.002-.002c.34-.354.338-.913-.012-1.26-.35-.348-.91-.35-1.268-.012l-.01.007-.007.005-.006.008-5.356 5.327-.008.005-.005.008-.057.057.01.012c-.29.354-.28.87.052 1.2zm12.305-6.347c-.99-.986-2.586-.995-3.595-.037l-.006.004-.04.033-.034.04-14.585 14.51.024.023c-.132.095-.223.24-.223.415v.004c0 .137.05.274.153.38l2.872 2.83c.097.114.235.19.397.19.19 0 .348-.105.44-.255l14.574-14.5.02-.015.016-.02.024-.022-.002-.003c.963-1.003.953-2.59-.038-3.576zM25.27 22.336c0-1.1-.895-1.99-2-1.99h-3.05V17.31c0-1.1-.895-1.99-2-1.99s-2 .89-2 1.99v3.033h-3.066c-1.105 0-2 .89-2 1.99s.895 1.99 2 1.99h3.065v3.05c0 1.1.895 1.99 2 1.99s2-.89 2-1.99v-3.05h3.05c1.105 0 2-.89 2-1.99z"/></symbol><symbol id="pcc-icon-beginswith" viewBox="0 0 52 52"><path d="M36.903 19.8c1.506-.247 2.833-.498 3.978-.755l-.82-2.787c-.784.297-1.64.657-2.57 1.078-.68.318-1.124.518-1.33.6.28-2 .418-3.376.418-4.125h-2.755c0 1.058.124 2.424.37 4.096-1.062-.656-2.27-1.257-3.62-1.802l-.914 2.71c.277.103.855.262 1.732.477 1.217.3 1.955.468 2.213.51l-.604.585c-.804.76-1.578 1.555-2.32 2.386l2.336 1.803c.815-1.252 1.537-2.433 2.167-3.542l2.09 3.434 2.367-1.555c-.217-.268-.51-.612-.882-1.033L36.9 19.8zm-13.28 8.19c.835-.376 1.495-.94 1.982-1.69.487-.75.73-1.576.73-2.475 0-.83-.196-1.578-.59-2.245-.396-.668-.89-1.202-1.482-1.604-.592-.402-1.264-.666-2.014-.792-.75-.127-1.89-.19-3.417-.19H11.12V38.19h6.568c2.483-.017 4.05-.06 4.7-.13 1.034-.115 1.905-.418 2.612-.91.706-.494 1.264-1.154 1.672-1.978.408-.825.612-1.674.612-2.547 0-1.11-.316-2.073-.948-2.894-.632-.82-1.536-1.4-2.712-1.74zm-8.608-5.802h2.238c1.834 0 2.944.022 3.33.066.65.08 1.14.303 1.468.675.33.37.495.852.495 1.445 0 .62-.19 1.12-.573 1.5-.382.38-.906.608-1.573.686-.37.045-1.313.067-2.83.067h-2.555v-4.44zm7.694 11.884c-.365.405-.837.66-1.416.766-.378.08-1.268.118-2.672.118h-3.607v-5.133h3.146c1.774 0 2.925.092 3.456.275.53.184.937.476 1.218.878.28.4.42.89.42 1.466 0 .68-.18 1.225-.546 1.63z"/></symbol><symbol id="pcc-icon-border-width" viewBox="0 0 52 52"><path d="M11.297 13.315v2.99h29.405v-2.99H11.297zm0 25.37h29.405v-6.56H11.297v6.56zm0-11.915h29.405v-5.074H11.297v5.074z"/></symbol><symbol id="pcc-icon-check" viewBox="0 0 52 52"><path d="M39.986 18.418l-3.593-3.593c-.637-.637-1.672-.634-2.312.006L22.44 26.473l-4.52-4.52c-.64-.64-1.674-.642-2.31-.005l-3.594 3.593c-.637.637-.634 1.672.006 2.312l5.34 5.34c.074.138.162.27.277.386l3.592 3.593c.327.328.76.483 1.19.473.442.02.89-.13 1.228-.468l3.593-3.594c.12-.12.21-.256.284-.4L39.98 20.728c.64-.64.642-1.675.005-2.312z"/></symbol><symbol id="pcc-icon-circle" viewBox="0 0 52 52"><path d="M26 19.997c3.312 0 5.997 2.688 5.997 6.004 0 3.317-2.685 6.004-5.997 6.004S20.002 29.316 20.002 26c0-3.316 2.685-6.003 5.998-6.003z"/></symbol><symbol id="pcc-icon-comment" viewBox="0 0 52 52"><path d="M37.28 13.18H14.72c-2 0-3.62 1.61-3.62 3.6v11.623c0 1.988 1.62 3.6 3.62 3.6h2.876l-1.713 6.817 9.743-6.817H37.28c1.998 0 3.62-1.612 3.62-3.6V16.78c0-1.99-1.622-3.6-3.62-3.6zm-1.585 13.45H16.45V24.33h19.245v2.297zm0-6.637H16.45v-2.297h19.245v2.297z"/></symbol><symbol id="pcc-icon-context" viewBox="0 0 52 52"><path d="M19.148 29.803c0-.555.047-1.095.117-1.627h-3.8V14.832H28.88v4.57c1.027.124 1.997.468 2.89.974v-9.152H11.812V31.04h7.4c-.04-.406-.066-.818-.066-1.237zm20.29-1.668l-2.507-4.482c-.062-.113-.162-.187-.273-.234-.488-.67-1.394-.908-2.14-.496-.803.445-1.09 1.454-.644 2.253l.208.242.092.16c-.273-.054-.57-.02-.868.072l-1.227-2.193-.044-.05-.03-.092c-.446-.8-1.46-1.086-2.264-.64-.804.444-1.093 1.452-.646 2.252l.04.047.013.106 1.194 2.134-.745.413-2.176-3.888-.025-.073c-.447-.8-1.46-1.088-2.265-.643-.76.42-1.038 1.343-.688 2.12l.02.17 2.202 3.936-.72.398-5.348-9.558-.153-.173c-.492-.655-1.385-.885-2.123-.476-.785.435-1.067 1.405-.663 2.195l.01.075 7.387 13.2-4.318-1.145c-.855-.08-1.74.495-1.98 1.286s.263 1.498 1.118 1.58l8.417 3.824c.458.378 1.19.437 1.843.075l7.926-4.39c.895-.75 1.984-2.047 2.112-4.05.096-1.51-.282-2.878-.732-3.96z"/></symbol><symbol id="pcc-icon-current" viewBox="0 0 52 52"><path d="M16.31 11.183h19.38v29.634H16.31V11.183z"/></symbol><symbol id="pcc-icon-datestamp" viewBox="0 0 52 52"><path d="M11 11v30h30V11H11zm27.95 27.95h-25.9V18.64h25.9v20.31zM20.16 35.19h2.533V21.92H20.64c-.29.806-.822 1.513-1.596 2.114-.775.606-1.496 1.012-2.156 1.23v2.298c1.258-.414 2.35-1.05 3.274-1.918v9.547zm9.944-4.464c.955 0 1.754-.367 2.393-1.11-.103 1.52-.337 2.516-.704 2.997-.367.48-.815.723-1.336.723-.416 0-.75-.12-1.002-.363-.25-.238-.408-.61-.47-1.105l-2.45.266c.18 1.098.588 1.918 1.225 2.47.64.55 1.475.823 2.506.823 1.436 0 2.605-.535 3.5-1.606.895-1.066 1.343-2.812 1.343-5.23 0-2.37-.43-4.078-1.292-5.113-.856-1.04-1.956-1.555-3.3-1.555-1.232 0-2.243.41-3.04 1.23-.798.82-1.194 1.9-1.194 3.24 0 1.288.375 2.33 1.13 3.132.755.805 1.652 1.203 2.69 1.203zm-.87-6.152c.31-.367.7-.555 1.17-.555.493 0 .925.226 1.304.68.375.448.563 1.08.563 1.9 0 .747-.166 1.31-.502 1.696-.333.383-.74.574-1.227.574-.508 0-.926-.2-1.262-.598-.337-.402-.507-1.028-.507-1.883 0-.84.158-1.446.465-1.817z"/></symbol><symbol id="pcc-icon-delete" viewBox="0 0 52 52"><path d="M36.992 14.456H32.13l.006-.147v-.113c0-1.655-.676-2.997-1.51-2.997h-9.59c-.834 0-1.51 1.342-1.51 2.997v.112l.006.146h-4.525c-1.913 0-3.464 1.515-3.464 3.383v.125c0 1.868 1.55 1.502 3.464 1.502H36.99c1.914 0 3.465.366 3.465-1.502v-.126c0-1.87-1.55-3.384-3.464-3.384zm-.224 6.147c-.54 0-23.236-.27-23.65.093l-.008.012 2.66 15.66c.03 1.246.508 3.133 1.333 3.856.46.403 1.073.557 1.674.512l14.693.063c.596 0 1.13-.22 1.514-.57l.012-.007c.186-.163.318-.355.42-.553v-.002c.35-.68.504-1.552.532-2.254l2.326-16.257-.01-.012c-.412-.362-.954-.542-1.496-.542zm-16.58 15.35c-.715.062-1.318-.325-1.346-.864l-.62-10.027c-.027-.54.53-1.026 1.244-1.088.715-.062 1.318.325 1.346.864l.62 10.025c.027.54-.53 1.026-1.244 1.088zm5.993.013c-.716 0-1.297-.437-1.297-.977l-.006-10.05c0-.54.58-.98 1.297-.98s1.298.437 1.298.977l.006 10.05c0 .54-.58.978-1.297.98zm7.225-.877c-.028.538-.63.925-1.346.863-.716-.062-1.273-.55-1.244-1.088l.62-10.026c.027-.54.63-.927 1.345-.865.716.062 1.273.55 1.244 1.088l-.62 10.026z"/></symbol><symbol id="pcc-icon-document-compare" viewBox="0 0 52 52"><path d="M39.92 26L36 21.72a2 2 0 0 0-.34-.3v5h4.47a2.16 2.16 0 0 0-.21-.42z" fill="#7d7f85"/><path d="M35.42 27.79a.84.84 0 0 1-.65-.3 1 1 0 0 1-.27-.72V21h-7.6a.84.84 0 0 0-.65.3 1 1 0 0 0-.25.7v17a1 1 0 0 0 .26.72.83.83 0 0 0 .65.3h12.74a.83.83 0 0 0 .65-.3 1 1 0 0 0 .26-.72V27.79zm2.1 6.08a.77.77 0 0 1-.19.52.62.62 0 0 1-.49.22h-4.06l1.69 1.7a.73.73 0 0 1 0 1l-.43.44a.71.71 0 0 1-.52.21.74.74 0 0 1-.53-.21L29.23 34a.71.71 0 0 1-.23-.5.74.74 0 0 1 .21-.53L33 29.22a.73.73 0 0 1 1 0l.43.43a.74.74 0 0 1 0 1.05l-1.69 1.69h4.07a.62.62 0 0 1 .49.22.77.77 0 0 1 .19.52zM24.92 17L21 12.72a2 2 0 0 0-.34-.3v5h4.47a2.16 2.16 0 0 0-.21-.42z" fill="#7d7f85"/><path d="M19.77 18.49a1 1 0 0 1-.27-.72V12h-7.6a.84.84 0 0 0-.65.3 1 1 0 0 0-.25.7v17a1 1 0 0 0 .26.72.83.83 0 0 0 .65.3h12.74a.83.83 0 0 0 .65-.3 1 1 0 0 0 .26-.72V18.79h-5.14a.84.84 0 0 1-.65-.3zm2.75 6a.74.74 0 0 1-.21.53l-3.76 3.75a.73.73 0 0 1-1 0l-.43-.43a.74.74 0 0 1 0-1.05l1.69-1.69h-4.12a.62.62 0 0 1-.49-.22.77.77 0 0 1-.19-.52v-.74a.77.77 0 0 1 .19-.52.62.62 0 0 1 .49-.22h4.07l-1.69-1.7a.73.73 0 0 1 0-1l.43-.44A.71.71 0 0 1 18 20a.74.74 0 0 1 .53.21L22.31 24a.71.71 0 0 1 .21.5z" fill="#7d7f85"/></symbol><symbol id="pcc-icon-download" viewBox="0 0 52 52"><path d="M39.233 23.03c-.625-.484-1.46-.67-2.277-.616l-4.876-.017V11.042h-13v11.31l-4.25-.015c-.81 0-1.537.265-2.06.683l-.016.008c-.254.197-.43.426-.57.665l-.003.004c-.473.817-.294 1.806.574 2.478l10.594 11.48H12.115v3.302H39.35v-3.303H28.638l10.595-11.48c1.122-.87 1.122-2.277 0-3.146z"/></symbol><symbol id="pcc-icon-edit" viewBox="0 0 52 52"><path fill-rule="evenodd" clip-rule="evenodd" d="M39.922 17.454l.004.003-.034.034-.024.03-.03.025-21.37 21.26c-.136.22-.37.375-.648.375-.237 0-.44-.112-.582-.28l-4.21-4.15c-.155-.153-.228-.355-.225-.556v-.004c0-.255.132-.47.325-.61l-.035-.034 21.39-21.276.048-.06.06-.048.008-.007c1.48-1.403 3.82-1.39 5.272.056 1.453 1.446 1.467 3.773.055 5.245zm-8.322-3.79l-.017.016-.004.006-.007.004-7.864 7.822-.005.006-.006.004-.09.088-.018-.017c-.523.423-1.284.41-1.772-.074-.487-.485-.5-1.244-.075-1.763l-.017-.017.084-.084.008-.01.01-.01 7.855-7.812.008-.01.01-.01.013-.01.002.002c.522-.495 1.346-.493 1.86.017.512.51.514 1.33.016 1.85l.004.002zm-14.78 26.45v.004c0 .422-.345.765-.77.765h-4.247c-.213 0-.406-.085-.545-.224-.14-.14-.226-.33-.226-.543v-4.224c0-.423.346-.767.77-.767.238 0 .442.112.583.28l4.21 4.152c.155.153.228.354.224.554z"/></symbol><symbol id="pcc-icon-endswith" viewBox="0 0 52 52"><path d="M22.142 15.63c-.837.316-1.75.7-2.743 1.15-.728.34-1.2.552-1.422.64.297-2.137.446-3.605.446-4.405h-2.94c0 1.128.13 2.586.396 4.37-1.135-.7-2.423-1.34-3.866-1.922l-.975 2.893c.296.11.913.28 1.85.51 1.3.318 2.087.5 2.362.543l-.644.623c-.86.81-1.685 1.66-2.478 2.547l2.495 1.923c.87-1.337 1.64-2.597 2.313-3.78l2.23 3.665 2.53-1.66c-.232-.284-.546-.652-.943-1.1l-1.983-2.22c1.608-.263 3.023-.53 4.246-.805l-.876-2.974zm7.293 19.896V29.94h10.357v-3.457H29.434v-4.55h11.13v-3.47H25.27v20.52h15.69v-3.457H29.435z"/></symbol><symbol id="pcc-icon-esign" viewBox="0 0 52 52"><path d="M22.705 25.83l-.013-.008-.364-.235-.006.01c-3.7-2.258-6.532-3.235-5.666-4.735.76-1.316 4.088.338 8.055 2.652l2.65-3.73c-7.14-4.23-12.48-5.344-15.453-1.283-2.31 3.153 1.092 6.713 8.15 11.06l.002-.003c3.745 2.368 7.228 4.984 6.134 6.477-.788 1.076-4.758-.806-8.724-3.12l-2.484 3.705c7.14 4.23 13.892 5.565 16.143 2.37 2.21-3.134-1.606-8.84-8.425-13.16zm17.123-14.223c-1.838-1.06-2.964.535-2.964.535l-8.653 9.912-.506 4.598 4.072-1.927 8.588-10.153s1.303-1.903-.535-2.964z"/></symbol><symbol id="pcc-icon-exactword" viewBox="0 0 52 52"><path d="M21.965 26.875h-5.2c.05-2.104.54-3.79 1.47-5.06.932-1.267 2.468-2.256 4.61-2.966l-2.103-4.414c-2.295.812-4.182 1.928-5.66 3.347-1.48 1.42-2.493 3.024-3.04 4.813-.55 1.788-.823 4.23-.823 7.324v7.646h10.746v-10.69zm17.937 0H34.7c.05-2.104.54-3.79 1.473-5.06.93-1.267 2.467-2.256 4.608-2.966l-2.102-4.414c-2.27.812-4.15 1.928-5.64 3.347-1.493 1.42-2.513 3.02-3.06 4.794-.55 1.775-.823 4.223-.823 7.342v7.645h10.747v-10.69z"/></symbol><symbol id="pcc-icon-external-link" viewBox="0 0 52 52"><path d="M34.378 36.328h-19.85V15.673h19.85v1.956l3.213 2.202v-7.33H11.5v27h26.09v-7.35l-3.212 2.15v2.026zm6.122-10.36l-13.727-7.42v4.946h-7.798v5.013h7.798v4.947L40.5 25.967z"/></symbol><symbol id="pcc-icon-eye-closed" viewBox="0 0 52 52"><path d="M21.956 25.802l3.816-3.816c-2.094.034-3.78 1.722-3.816 3.816zm4.61 3.876c1.56-.297 2.786-1.523 3.083-3.084l-3.085 3.084zM26 18.348c.612 0 1.203.082 1.772.223l2.9-2.9c-1.47-.705-3.04-1.15-4.672-1.15-8.284 0-15 11.33-15 11.33s1.54 2.664 4.052 5.44l3.63-3.63c-.116-.534-.182-1.09-.182-1.66 0-4.227 3.358-7.653 7.5-7.653zm11.025 2.284l-3.707 3.707c.116.534.182 1.09.182 1.66 0 4.227-3.358 7.653-7.5 7.653-.612 0-1.203-.083-1.772-.224l-2.88 2.88c1.465.718 3.028 1.17 4.652 1.17 8.284 0 15-11.63 15-11.63s-1.51-2.542-3.975-5.218zm-1.833-6.653l2.828 2.827L16.807 38.02l-2.828-2.828z"/></symbol><symbol id="pcc-icon-eye" viewBox="0 0 52 52"><path d="M26 14.52c-8.284 0-15 11.33-15 11.33s6.716 11.63 15 11.63 15-11.63 15-11.63-6.716-11.33-15-11.33zm0 19.133c-4.142 0-7.5-3.426-7.5-7.653 0-4.227 3.358-7.653 7.5-7.653s7.5 3.426 7.5 7.653c0 4.227-3.358 7.653-7.5 7.653zm0-11.464c-2.07-.002-3.75 1.71-3.75 3.825S23.93 29.84 26 29.84s3.75-1.71 3.75-3.825S28.07 22.19 26 22.19z"/></symbol><symbol id="pcc-icon-filter" viewBox="0 0 52 52"><path d="M22.75 40.5h6.5v-9.664L39 14.73s-.092-1.454-.983-2.338c-.89-.883-2.267-.883-2.267-.883h-19.5s-1.314-.153-2.282.806C13 13.276 13 14.73 13 14.73l9.75 16.106V40.5z"/></symbol><symbol id="pcc-icon-firstpage" viewBox="0 0 52 52"><path fill-rule="evenodd" d="M36.77 12.376l-.007-.017c-.194-.262-.42-.445-.657-.587l-.003-.003c-.81-.488-1.786-.303-2.45.59L21.667 23.872l-.014.013c-.43.578-.644 1.336-.643 2.094 0 .756.214 1.515.643 2.093l.014.013 11.986 11.512c.86 1.155 2.252 1.155 3.11 0 .478-.643.662-1.502.608-2.342l.076-22.762c0-.834-.262-1.58-.675-2.118zM14.555 40.52h4.616V11.48h-4.616v29.04z" clip-rule="evenodd"/></symbol><symbol id="pcc-icon-fitcontent" viewBox="0 0 52 52"><path d="M36.347 11.29H15.654c-2.452 0-4.44 1.98-4.44 4.417v20.585c0 2.44 1.988 4.416 4.44 4.416h20.693c2.452 0 4.44-1.977 4.44-4.416V15.707c0-2.438-1.988-4.416-4.44-4.416zm.386 22.182c0 1.77-1.443 3.206-3.223 3.206H18.487c-1.78 0-3.224-1.435-3.224-3.206V18.527c0-1.77 1.443-3.206 3.224-3.206H33.51c1.78 0 3.223 1.437 3.223 3.207v14.945zM22.67 19.748c-.114-.114-.25-.195-.39-.258h-.002c-.48-.216-1.063-.135-1.458.258l-5.095 5.07-.01.004c-.255.254-.382.588-.382.92 0 .335.127.668.383.923l.01.006 5.094 5.07c.51.508 1.34.508 1.85 0 .285-.284.395-.662.363-1.03l.045-10.023c0-.367-.156-.696-.402-.933l-.005-.007zm6.368.012c-.284.284-.394.662-.362 1.033l-.045 10.02c0 .368.157.697.403.933l.005.008c.115.115.25.196.39.258h.003c.482.216 1.064.135 1.46-.258l5.094-5.07.008-.005c.256-.256.383-.59.383-.922 0-.334-.127-.667-.383-.922l-.008-.005-5.095-5.068c-.513-.508-1.34-.508-1.852 0z"/></symbol><symbol id="pcc-icon-freehandSign" viewBox="0 0 52 52"><path d="M25.995 35.493c3.052-.492-5-6.89-5-16 0-6.267 5.397-6.77 5.305 2.195-.09 8.965 2.735 1.494 4.375 0 1.64-1.494 10.306-3.07 6.75 4.517-3.554 7.586-3.554 8.505-2.916 9.195.637.69 3.957-4.465 5.833-9.195 1.755-4.425-.367-7.804-3.502-9.006-2.942-1.07-7.624.81-7.624.81s-2.273-6.517-6.376-6.517c-4.102 0-5.834 4.86-5.834 7.356 0 2.495 3.958 17.453 8.987 16.643zM11.01 37.496v3.01h29.994v-3.01H11.01zm1.985-2.003l1-2 1 2h2l-2-3 2-3h-2l-1 2-1-2h-2l2 3-2 3h2z"/></symbol><symbol id="pcc-icon-fullscreen" viewBox="0 0 52 52"><path d="M31.394 24.2l3.72-3.784 3.443 3.43 1.686-12.09-12.186 1.637 3.455 3.44-3.708 3.773 3.59 3.596zM20.62 27.79l-3.72 3.786-3.443-3.43-1.686 12.09L23.958 38.6l-3.455-3.44 3.708-3.774-3.59-3.596zm-3.79-7.287l3.775 3.708 3.596-3.59-3.784-3.718 3.43-3.444-12.09-1.686 1.637 12.186 3.44-3.455zm18.33 11.01l-3.774-3.708-3.596 3.59 3.785 3.72-3.43 3.443 12.09 1.686-1.637-12.186-3.44 3.455z"/></symbol><symbol id="pcc-icon-hamburger-menu" viewBox="0 0 52 52"><path d="M11 36h30v-3.333H11V36zm0-8.333h30v-3.333H11v3.333zM11 16v3.333h30V16H11z"/></symbol><symbol id="pcc-icon-highlight" viewBox="0 0 52 52"><path fill-rule="evenodd" d="M18.772 30.14l-1.007 1.148.038.043c-.098.082-.178.18-.236.302l-.017.03c-.056.126-.095.264-.095.415v.006c-.003.245.075.492.24.68l4.502 5.087c.15.205.37.343.622.343.096 0 .184-.026.27-.062l.1-.05.097-.074c.09-.074.165-.164.223-.272l.96-1.096-5.697-6.497zm2.74 8.517l-4.503-5.088-.045-.04-.157-.137-.038-.03c-.082-.053-.17-.086-.268-.105l-.115-.03h-.02l-.115.03c-.2.036-.38.14-.507.31l-4.502 5.09c-.164.186-.242.432-.238.678v.006c0 .52.368.94.823.94h9.1c.455 0 .824-.42.824-.94v-.007c.002-.246-.075-.492-.24-.68zm19.48-22.302l-.003-.03c-.006-.218-.028-.435-.076-.652l-.04-.123c-.047-.186-.1-.373-.18-.558l-.15-.276-.217-.4c-.147-.227-.317-.45-.512-.673-1.576-1.797-4.13-2.797-5.707-1l-.053.074-14.41 16.43 5.7 6.497 3.694-4.213 10.745-12.253.03-.028.037-.05.026-.028-.002-.002c.753-.887 1.128-1.8 1.117-2.714zm-17.328 23.95H38.22V38.9H23.665v1.406z" clip-rule="evenodd"/></symbol><symbol id="pcc-icon-image-stamp" viewBox="0 0 52 52"><path d="M37.25 16.708h-22.5v18.584h22.5V16.708zM41 12.99v26.02H11V12.99h30zm-5.625 20.444h-18.75v-3.717l5.625-9.292 7.705 9.292L35.375 26v7.433zm-5.625-12.08c0-1.54 1.26-2.788 2.813-2.788 1.553 0 2.813 1.248 2.813 2.788 0 1.54-1.26 2.788-2.813 2.788-1.553 0-2.813-1.248-2.813-2.788z"/></symbol><symbol id="pcc-icon-imageSign" viewBox="0 0 52 52"><path d="M19.42 27.473l-.606 2.774 2.85.482.544 2.893 2.788-.603 1.636 2.412 2.364-1.628 2.364 1.688 1.576-2.472 2.85.603.544-2.834 2.85-.483-.607-2.894 2.424-1.568-1.636-2.352 1.637-2.352-2.424-1.567.606-2.834-2.85-.544-.545-2.834-2.85.603-1.575-2.412-2.364 1.628-2.424-1.687-1.515 2.533-2.848-.663-.546 2.834-2.85.543.607 2.834-2.423 1.568 1.636 2.352-1.636 2.352 2.424 1.628zm-8.41 10.023v3.01h29.995v-3.01H11.01zm1.986-2.003l1-2 1 2h2l-2-3 2-3h-2l-1 2-1-2h-2l2 3-2 3h2z"/></symbol><symbol id="pcc-icon-imageTools" viewBox="0 0 52 52"><path d="M11 11v7.5h30V11H11zm0 11.25v5.625h30V22.25H11zm0 9.375v3.75h30v-3.75H11zm0 7.5V41h30v-1.875H11z"/></symbol><symbol id="pcc-icon-landscape" viewBox="0 0 52 52"><path d="M11.412 16.46v19.08H40.59V16.46H11.41zm25.114 14.915H15.97V20.55h20.556v10.825z"/></symbol><symbol id="pcc-icon-lastpage" viewBox="0 0 52 52"><path fill-rule="evenodd" d="M30.333 23.914L18.347 12.402c-.86-1.155-2.25-1.155-3.11 0-.478.643-.662 1.502-.608 2.342l-.076 22.762c0 .834.262 1.58.675 2.118l.007.017c.194.262.42.445.657.588l.003.003c.81.49 1.786.304 2.45-.59l11.986-11.51.014-.014c.43-.578.644-1.336.643-2.094 0-.757-.214-1.516-.643-2.094l-.014-.013zM32.83 11.48v29.04h4.615V11.48H32.83z" clip-rule="evenodd"/></symbol><symbol id="pcc-icon-layer-back" viewBox="0 0 52 52"><path d="M35.728 22.65l4.75-3.234L26 11.466l-14.477 7.95 4.75 3.234-4.75 2.608 4.4 2.998-4.4 2.417L26 40.533l14.477-9.86-4.4-2.417 4.4-2.998-4.75-2.608zm-9.566 9.086l-9.928-6.42 2.228-1.173L26 29.277l7.396-5.038 1.877 1.076-9.11 6.42zm.362-5.843l-9.928-6.42 9.928-5.227 9.11 5.227-9.11 6.42z"/></symbol><symbol id="pcc-icon-layer-backward" viewBox="0 0 52 52"><path d="M40.88 22.016L26 13.846l-14.88 8.17 4.882 3.325-4.88 2.68L26 38.157 40.88 28.02l-4.882-2.68 4.88-3.323zm-14.713 6.657l-10.203-6.6 10.203-5.37 9.363 5.37-9.363 6.6z"/></symbol><symbol id="pcc-icon-layer-forward" viewBox="0 0 52 52"><path d="M40.88 22.016L26 13.846l-14.88 8.17 4.882 3.325-4.88 2.68L26 38.157 40.88 28.02l-4.882-2.68 4.88-3.324zm-5.35 6.064l-9.363 6.6-10.203-6.6 2.29-1.205L26 32.152l7.6-5.178 1.93 1.106z"/></symbol><symbol id="pcc-icon-layer-front" viewBox="0 0 52 52"><path d="M35.762 22.64l4.765-3.247L26 11.415l-14.527 7.978 4.765 3.246-4.765 2.616 4.417 3.008-4.417 2.425L26 40.583l14.527-9.895-4.417-2.426 4.417-3.008-4.765-2.617zm-9.6 14.55l-9.96-6.443 1.88-.99L26 35.15l7.764-5.287 1.54.884-9.14 6.443zm0-5.434l-9.96-6.443 2.234-1.177L26 29.288l7.422-5.055 1.883 1.08-9.142 6.443z"/></symbol><symbol id="pcc-icon-link" viewBox="0 0 52 52"><path d="M38.843 13.85c-3.622-4.52-8.99-1.13-8.99-1.13s-3.68 3.456-3.68 3.597c1.063-.14 3.496 1.052 3.496 1.052l1.968-1.957s2.05-1.323 3.938 0c2.3 1.61.985 4.89.985 4.89l-6.89 6.848s-1.745 2.38-3.94 1.957c-2.193-.423-2.953-1.956-2.953-1.956l-2.265 2.21c4.388 5.853 9.767 1.693 9.767 1.693l4.53-4.513 4.175-4.09s3.503-4.054-.142-8.602zM22.5 34.5l-2 2s-2.082 1.352-4 0c-2.335-1.647-1-5-1-5l7-7s1.772-2.433 4-2c2.228.432 3 2 3 2l2.3-2.26c-4.457-5.983-9.92-1.73-9.92-1.73l-4.6 4.613-4.24 4.18s-3.56 4.146.143 8.795c3.678 4.62 9.13 1.153 9.13 1.153s3.737-3.53 3.737-3.675c-1.078.144-3.55-1.076-3.55-1.076z"/></symbol><symbol id="pcc-icon-list" viewBox="0 0 52 52"><path d="M13.88 32.755c-1.62 0-2.934 1.307-2.934 2.92 0 1.612 1.314 2.92 2.935 2.92s2.936-1.308 2.936-2.92c0-1.613-1.314-2.92-2.935-2.92zm0-19.35c-1.62 0-2.934 1.31-2.934 2.92 0 1.613 1.314 2.92 2.935 2.92s2.936-1.306 2.936-2.92c0-1.61-1.314-2.92-2.935-2.92zm0 9.51c-1.62 0-2.934 1.307-2.934 2.92 0 1.61 1.314 2.92 2.935 2.92s2.936-1.31 2.936-2.92c0-1.613-1.314-2.92-2.935-2.92zm6.71-7.947v2.716h20.463v-2.716H20.59zm0 21.732h20.463v-2.716H20.59V36.7zm0-9.508h20.463v-2.717H20.59v2.717z"/></symbol><symbol id="pcc-icon-load" viewBox="0 0 52 52"><path d="M40.647 25.63c.058.002-1.298 6.323-1.972 9.014v.255c0 .823-.67 1.49-1.5 1.49H13.468l4.614-12.254s.733-1.05 1.317-1.05l19.275-.006v.05c.586.003 1.4.024 1.8.1.683.13.17 2.4.17 2.4zm-23.734-3.104l-5.358 13.362c-.237-.264-.385-.608-.385-.99V19.705c0-.824.67-1.49 1.5-1.49h1.04c.434-.98 1.266-2.523 2.203-2.557.57-.02 1.952-.046 1.952-.046l2.245-.003s1.278.028 1.733.043c1.127.036 2.037 1.642 2.467 2.56h12.867c.828 0 1.5.67 1.5 1.492v1.507H18.533c-.73 0-1.618 1.313-1.618 1.313z"/></symbol><symbol id="pcc-icon-loader" viewBox="0 0 52 52"><circle cx="26" cy="13.813" r="2.813"/><circle cx="26" cy="38.188" r="2.813" opacity=".4"/><circle cx="13.813" cy="26" r="2.813" opacity=".1"/><circle cx="38.188" cy="26" r="2.813" opacity=".7"/><circle cx="34.618" cy="34.618" r="2.813" opacity=".55"/><circle cx="17.382" cy="34.618" r="2.813" opacity=".25"/><circle cx="34.618" cy="17.382" r="2.813" opacity=".85"/></symbol><symbol id="pcc-icon-magnifiertool" viewBox="0 0 52 52"><path d="M37.047 11.146h-15.99c-1.894 0-3.43 1.528-3.43 3.412v15.905c0 .183.027.36.055.534L12.3 36.35c-1.036 1.03-1.036 2.7 0 3.73 1.035 1.03 2.713 1.03 3.748 0l6.238-6.205h14.76c1.896 0 3.43-1.528 3.43-3.412V14.558c0-1.884-1.535-3.412-3.43-3.412zm-1.12 16.012c0 1.165-.95 2.11-2.12 2.11H23.92c-1.173 0-2.123-.945-2.123-2.11v-9.836c0-1.165.95-2.11 2.122-2.11h9.887c1.172 0 2.12.945 2.12 2.11v9.836zm-3.16-6.726h-2.484V17.96c0-.896-.73-1.622-1.63-1.622s-1.632.726-1.632 1.622v2.472h-2.497c-.9 0-1.63.726-1.63 1.622 0 .896.73 1.623 1.63 1.623h2.498v2.485c0 .896.73 1.623 1.632 1.623s1.63-.727 1.63-1.623v-2.485h2.486c.9 0 1.63-.727 1.63-1.623s-.73-1.622-1.63-1.622z"/></symbol><symbol id="pcc-icon-matchcase" viewBox="0 0 52 52"><path d="M17.668 17.53l-6.526 16.667h3.588l1.383-3.785h6.697l1.463 3.785h3.68L21.245 17.53h-3.577zm-.514 10.073l2.263-6.184 2.31 6.183h-4.572zm23.127 4.974c-.102-.504-.153-1.287-.153-2.348l.034-3.73c0-1.386-.142-2.34-.428-2.858-.286-.52-.78-.948-1.48-1.285-.7-.338-1.768-.506-3.2-.506-1.577 0-2.766.28-3.566.842-.8.56-1.364 1.426-1.69 2.592l2.913.523c.197-.56.456-.953.776-1.176.32-.224.766-.335 1.337-.335.846 0 1.42.13 1.726.392.304.26.456.7.456 1.313v.32c-.58.242-1.62.503-3.12.783-1.113.212-1.964.46-2.554.745-.59.284-1.05.693-1.377 1.227-.328.534-.49 1.144-.49 1.825 0 1.03.36 1.883 1.08 2.558.72.674 1.703 1.01 2.953 1.01.71 0 1.375-.13 2-.397s1.212-.662 1.76-1.192l.114.375c.122.417.225.73.31.944h3.176c-.282-.576-.474-1.116-.577-1.62zm-3.273-3.54c0 .764-.042 1.283-.126 1.556-.12.417-.376.77-.765 1.058-.526.38-1.078.57-1.657.57-.518 0-.945-.163-1.28-.49-.335-.325-.503-.712-.503-1.16 0-.454.21-.83.63-1.124.273-.182.856-.368 1.747-.557.89-.19 1.543-.353 1.954-.49v.637z"/></symbol><symbol id="pcc-icon-nextpage" viewBox="0 0 52 52"><path d="M33.575 23.913l-.014-.013-11.985-11.512c-.86-1.155-2.25-1.155-3.11 0-.478.643-.662 1.502-.608 2.342l-.075 22.762c0 .834.262 1.58.675 2.118l.008.016c.194.26.42.444.657.587l.003.003c.81.488 1.786.303 2.45-.59L33.56 28.114l.015-.013c.43-.577.644-1.335.644-2.093 0-.757-.215-1.516-.645-2.094z"/></symbol><symbol id="pcc-icon-opacity" viewBox="0 0 52 52"><path d="M29.245 29.676H36.7V22.22h-7.455v7.456zm.01-14.922H21.8v7.455h7.455v-7.456zm-18.163-3.33v29.15h29.815v-29.15H11.092zm26.146 26.16H13.89v-23.15h23.348v23.15zM21.79 22.22h-7.454v7.456h7.455V22.22zm7.464 7.468H21.8v7.455h7.454v-7.455z"/></symbol><symbol id="pcc-icon-page" viewBox="0 0 52 52"><path d="M37 40.5H15v-21l8-8h14v29zm-12-28l-9 9h9v-9z"/></symbol><symbol id="pcc-icon-pantool" viewBox="0 0 52 52"><path fill-rule="evenodd" d="M37.03 37.78c-1.327 1.984-3.21 2.75-4.63 3.042l-9.52-.15c-.962-.014-1.755-.558-1.987-1.284l-6.664-9.31c-.875-.62-.972-1.696-.217-2.404s2.075-.78 2.95-.16l3.972 3.94.055-3.522c.004-.24.07-.468.184-.674V15.216c0-1.003.817-1.815 1.825-1.815H23c1.008 0 1.825.813 1.825 1.816v11.07l.913.015V12.978c0-.995.81-1.8 1.81-1.8s1.812.805 1.812 1.8v13.38l.945.016V15.216c0-1.003.817-1.815 1.825-1.815h.003c1.008 0 1.825.813 1.825 1.816V26.43l.882.014v-8.44c0-1.002.817-1.815 1.825-1.815h.003c1.008 0 1.825.812 1.825 1.814V34.35c-.268 1.118-.72 2.314-1.466 3.43z" clip-rule="evenodd"/></symbol><symbol id="pcc-icon-paperclip" viewBox="0 0 52 52"><title>Full Viewer Icon Set</title><path d="M31.46 17.83h2v15.64a7.31 7.31 0 0 1-2.17 5.33A7.16 7.16 0 0 1 26 41a7.52 7.52 0 0 1-7.53-7.53v-17A5.56 5.56 0 0 1 24 11a5.17 5.17 0 0 1 3.83 1.63 5.33 5.33 0 0 1 1.6 3.86v14.3A3.38 3.38 0 0 1 26 34.17a3.37 3.37 0 0 1-2.43-1 3.21 3.21 0 0 1-1-2.39v-13h2v13a1.25 1.25 0 0 0 .41 1 1.41 1.41 0 0 0 1 .38 1.31 1.31 0 0 0 1.34-1.34V16.49a3.37 3.37 0 0 0-1-2.43A3.21 3.21 0 0 0 24 13a3.49 3.49 0 0 0-3.45 3.45v17A5.56 5.56 0 0 0 26 39a5.17 5.17 0 0 0 3.83-1.63 5.33 5.33 0 0 0 1.6-3.86V17.83z" fill="#7d7f85"/></symbol><symbol id="pcc-icon-pencil-add" viewBox="0 0 52 52"><path d="M20.51 36.43a1.49 1.49 0 0 1-1-.41l-2.55-2.41a1.51 1.51 0 0 1-.06-2.12L34.34 13a1.51 1.51 0 0 1 2.12-.06l2.54 2.4a1.51 1.51 0 0 1 .06 2.12L21.6 36a1.49 1.49 0 0 1-1.09.43z" fill="#7d7f85"/><path d="M35.43 13a1 1 0 0 1 .69.27l2.55 2.41a1 1 0 0 1 0 1.41L21.24 35.61a1 1 0 0 1-1.41 0l-2.55-2.41a1 1 0 0 1 0-1.41L34.7 13.34a1 1 0 0 1 .73-.31m0-1a2 2 0 0 0-1.46.62l-17.46 18.5a2 2 0 0 0 .08 2.85l2.55 2.41A2 2 0 0 0 22 36.3l17.46-18.5a2 2 0 0 0-.11-2.8l-2.55-2.43a2 2 0 0 0-1.37-.57z" fill="#7d7f85"/><path d="M14.3 39.46a.5.5 0 0 1-.48-.64L15.87 32a.5.5 0 0 1 .35-.34h.13a.5.5 0 0 1 .34.14l4.62 4.36a.5.5 0 0 1-.17.83l-6.67 2.44a.5.5 0 0 1-.17.03z" fill="#7d7f85"/><path d="M16.35 32.16L21 36.52 14.3 39l2.05-6.8m0-1a1 1 0 0 0-1 .71l-2.05 6.8a1 1 0 0 0 1.3 1.23l6.67-2.44a1 1 0 0 0 .34-1.67L17 31.43a1 1 0 0 0-.69-.27z" fill="#7d7f85"/><path fill="none" stroke="#fff" stroke-linecap="round" stroke-linejoin="round" d="M32.16 14.15l8.82 8.32M15.53 32.18c.8.75 1.26 2 .89 2.42M21 37.34c-.8-.75-2.09-1.14-2.47-.75M18.34 35.1a1.2 1.2 0 0 1 .18 1.49M18.34 35.1c-.6-.57-1.61-.82-1.92-.49"/><path d="M23 18a.92.92 0 1 1 0 1.83h-9.62a.92.92 0 1 1 0-1.83z" fill="#7d7f85"/><path d="M19.06 23.68a.92.92 0 1 1-1.83 0V14a.92.92 0 1 1 1.83 0z" fill="#7d7f85"/></symbol><symbol id="pcc-icon-pencil-subtract" viewBox="0 0 52 52"><path d="M20.51 36.43a1.49 1.49 0 0 1-1-.41l-2.55-2.41a1.51 1.51 0 0 1-.06-2.12L34.34 13a1.51 1.51 0 0 1 2.12-.06l2.54 2.4a1.51 1.51 0 0 1 .06 2.12L21.6 36a1.49 1.49 0 0 1-1.09.43z" fill="#7d7f85"/><path d="M35.43 13a1 1 0 0 1 .69.27l2.55 2.41a1 1 0 0 1 0 1.41L21.24 35.61a1 1 0 0 1-1.41 0l-2.55-2.41a1 1 0 0 1 0-1.41L34.7 13.34a1 1 0 0 1 .73-.31m0-1a2 2 0 0 0-1.46.62l-17.46 18.5a2 2 0 0 0 .08 2.85l2.55 2.41A2 2 0 0 0 22 36.3l17.46-18.5a2 2 0 0 0-.11-2.8l-2.55-2.43a2 2 0 0 0-1.37-.57z" fill="#7d7f85"/><path d="M14.3 39.46a.5.5 0 0 1-.48-.64L15.87 32a.5.5 0 0 1 .35-.34h.13a.5.5 0 0 1 .34.14l4.62 4.36a.5.5 0 0 1-.17.83l-6.67 2.44a.5.5 0 0 1-.17.03z" fill="#7d7f85"/><path d="M16.35 32.16L21 36.52 14.3 39l2.05-6.8m0-1a1 1 0 0 0-1 .71l-2.05 6.8a1 1 0 0 0 1.3 1.23l6.67-2.44a1 1 0 0 0 .34-1.67L17 31.43a1 1 0 0 0-.69-.27z" fill="#7d7f85"/><path d="M15.53 32.18c.8.75 1.26 2 .89 2.42M21 37.34c-.8-.75-2.09-1.14-2.47-.75M18.34 35.1a1.2 1.2 0 0 1 .18 1.49M18.34 35.1c-.6-.57-1.61-.82-1.92-.49" fill="none" stroke="#fff" stroke-linecap="round" stroke-linejoin="round"/><path d="M23 18a.92.92 0 1 1 0 1.83h-9.62a.92.92 0 1 1 0-1.83z" fill="#7d7f85"/><path fill="none" stroke="#fff" stroke-linecap="round" stroke-linejoin="round" d="M32.16 14.15l8.82 8.32"/></symbol><symbol id="pcc-icon-pencil" viewBox="0 0 52 52"><path d="M20.51 36.43a1.49 1.49 0 0 1-1-.41l-2.55-2.41a1.51 1.51 0 0 1-.06-2.12L34.34 13a1.51 1.51 0 0 1 2.12-.06l2.54 2.4a1.51 1.51 0 0 1 .06 2.12L21.6 36a1.49 1.49 0 0 1-1.09.43z" fill="#7d7f85"/><path d="M35.43 13a1 1 0 0 1 .69.27l2.55 2.41a1 1 0 0 1 0 1.41L21.24 35.61a1 1 0 0 1-1.41 0l-2.55-2.41a1 1 0 0 1 0-1.41L34.7 13.34a1 1 0 0 1 .73-.31m0-1a2 2 0 0 0-1.46.62l-17.46 18.5a2 2 0 0 0 .08 2.85l2.55 2.41A2 2 0 0 0 22 36.3l17.46-18.5a2 2 0 0 0-.11-2.8l-2.55-2.43a2 2 0 0 0-1.37-.57z" fill="#7d7f85"/><path d="M14.3 39.46a.5.5 0 0 1-.48-.64L15.87 32a.5.5 0 0 1 .35-.34h.13a.5.5 0 0 1 .34.14l4.62 4.36a.5.5 0 0 1-.17.83l-6.67 2.44a.5.5 0 0 1-.17.03z" fill="#7d7f85"/><path d="M16.35 32.16L21 36.52 14.3 39l2.05-6.8m0-1a1 1 0 0 0-1 .71l-2.05 6.8a1 1 0 0 0 1.3 1.23l6.67-2.44a1 1 0 0 0 .34-1.67L17 31.43a1 1 0 0 0-.69-.27z" fill="#7d7f85"/><path fill="none" stroke="#fff" stroke-linecap="round" stroke-linejoin="round" d="M32.16 14.15l8.82 8.32M15.53 32.18c.8.75 1.26 2 .89 2.42M21 37.34c-.8-.75-2.09-1.14-2.47-.75M18.34 35.1a1.2 1.2 0 0 1 .18 1.49M18.34 35.1c-.6-.57-1.61-.82-1.92-.49"/></symbol><symbol id="pcc-icon-place" viewBox="0 0 52 52"><path d="M16.472 15.447h3.434v-3.83h-7.54v7.006h4.105v-3.176zm13.128-3.83h-6.316v3.83H29.6v-3.83zm3.378 0v3.83h3.318v3.176h3.643v-7.006h-6.962zm-13.07 13.57h-3.435V22h-4.105v6.914h7.54v-3.726zm16.388 0h-3.318v3.727h6.96V22h-3.642v3.188zm-2.956 7.968c-.072-.16-.165-.314-.296-.446l-.008-.006c-.272-.28-.65-.46-1.07-.46l-11.495.052c-.423-.036-.857.088-1.182.413-.583.582-.583 1.528 0 2.11l5.814 5.815.006.01c.292.292.675.438 1.057.437.383 0 .766-.145 1.058-.437l.006-.01 5.813-5.814c.45-.45.544-1.113.298-1.662v-.002zm-3.74-7.967h-6.316v3.726H29.6v-3.726z"/></symbol><symbol id="pcc-icon-portrait" viewBox="0 0 52 52"><path d="M16.19 11v30h19.62V11H16.19zm15.337 25.314h-11.13V15.178h11.13v21.136z"/></symbol><symbol id="pcc-icon-prevpage" viewBox="0 0 52 52"><path d="M18.425 28.087l.014.013 11.985 11.512c.86 1.155 2.25 1.155 3.11 0 .478-.643.662-1.502.608-2.342l.075-22.762c0-.834-.262-1.58-.675-2.12l-.008-.015c-.194-.26-.42-.444-.657-.587l-.003-.003c-.81-.488-1.786-.303-2.45.59L18.44 23.885l-.015.013c-.43.578-.644 1.336-.643 2.094 0 .757.214 1.516.643 2.094z"/></symbol><symbol id="pcc-icon-print" viewBox="0 0 52 52"><path d="M36.53 34.047h-.758l.005-.023V28.81c0-.44-.36-.798-.803-.798H16.82c-.444 0-.803.358-.803.8v5.212l.005.023h-.875c-2.064 0-3.737-1.664-3.737-3.717v-7.927c0-2.053 1.673-3.717 3.737-3.717h.87v2.124c0 .44.36.8.803.8h18.154c.444 0 .803-.36.803-.8v-2.124h.754c2.065 0 3.738 1.664 3.738 3.717v7.927c0 2.053-1.673 3.717-3.737 3.717zm-18.474-19.86H34.06v5.502H18.055v-5.503zM34.06 39.37H18.055v-9.22H34.06v9.22z"/></symbol><symbol id="pcc-icon-proximity" viewBox="0 0 52 52"><path d="M41 26c0-.563-.037-1.118-.098-1.667h-1.685c-.752-6.028-5.522-10.798-11.55-11.55v-1.685C27.117 11.038 26.563 11 26 11s-1.118.037-1.667.098v1.685c-6.028.752-10.798 5.522-11.55 11.55h-1.685c-.06.55-.098 1.104-.098 1.667s.037 1.118.098 1.667h1.685c.752 6.028 5.522 10.798 11.55 11.55v1.686c.55.06 1.104.097 1.667.097s1.118-.037 1.667-.098v-1.685c6.026-.754 10.798-5.522 11.55-11.55h1.686c.06-.547.097-1.102.097-1.667zm-13.333 9.85v-1.517c0-.92-.747-1.666-1.667-1.666s-1.667.745-1.667 1.666v1.517c-4.183-.703-7.478-3.997-8.18-8.182h1.514c.92 0 1.666-.748 1.666-1.668s-.745-1.667-1.666-1.667H16.15c.705-4.183 4-7.478 8.183-8.183v1.517c0 .92.747 1.666 1.667 1.666s1.667-.746 1.667-1.666V16.15c4.185.703 7.48 3.998 8.183 8.183h-1.517c-.92 0-1.666.747-1.666 1.667s.745 1.667 1.666 1.667h1.517c-.705 4.186-3.998 7.48-8.183 8.183z"/></symbol><symbol id="pcc-icon-pushpin" viewBox="0 0 52 52"><path d="M33.76 27.356c-1.16-1.332-2.53-1.053-4.11-2.52-.783-.73-.71-5.26-.71-5.26s-.057-3.93.748-4.735c.556-.554 1.533-.698 2.102-1.257.005-.004.01-.007.013-.012.123-.122.223-.267.296-.44.008-.017.018-.03.025-.05.05-.13.077-.284.09-.45.005-.04.025-.077.025-.12 0-.007-.004-.014-.005-.02 0-.013.005-.022.005-.033 0-.028-.02-.043-.024-.068-.066-.776-.695-1.39-1.486-1.39h-9.46c-.79 0-1.42.614-1.486 1.39-.003.024-.024.038-.024.067 0 .01.003.02.005.03 0 .01-.005.016-.005.023 0 .043.02.08.024.12.014.166.04.32.09.45.007.02.018.033.027.05.074.173.174.318.297.44.004.006.008.01.013.013.57.56 1.546.703 2.102 1.258.805.806.746 4.735.746 4.735s.075 4.532-.71 5.26c-1.578 1.468-2.948 1.19-4.107 2.52-.82.944-.67 2.626-.67 2.626h7.78v6.856L25.93 41h.14l.582-4.164V29.98h7.778s.15-1.68-.67-2.624z"/></symbol><symbol id="pcc-icon-range" viewBox="0 0 52 52"><path d="M14.796 39.512h5.152l1.8-6.952h5.062l-1.755 6.952h5.083l1.8-6.952h6.566v-3.922h-5.54l1.368-5.26h4.172V19.44h-3.146l1.824-6.952h-5.29L30.14 19.44H25.1l1.8-6.952h-5.105l-1.8 6.952h-6.498v3.94h5.47L17.6 28.637h-4.103v3.922h3.1l-1.8 6.952zm14.34-16.132l-1.323 5.26h-5.06l1.344-5.26h5.038z"/></symbol><symbol id="pcc-icon-rectanglezoomtool" viewBox="0 0 52 52"><path d="M36.54 33.438c0 1.74-1.42 3.152-3.17 3.152h-.57v3.962h3.36c2.41 0 4.364-1.943 4.364-4.34v-3.4H36.54v.626zm-.38-21.806H32.8v3.962h.57c1.75 0 3.17 1.41 3.17 3.152v.444h3.984v-3.216c0-2.398-1.954-4.342-4.365-4.342zm.38 17.167l3.984-.002v-5.596H36.54V28.8zM15.43 18.745c0-1.74 1.42-3.152 3.17-3.152h.578v-3.962h-3.364c-2.41 0-4.365 1.944-4.365 4.342v3.216h3.982v-.444zm13.357-3.152l-.002-3.962h-5.596v3.962h5.597zm4.826 10.2c0-1.2-.977-2.17-2.182-2.17H28.11v-3.308c0-1.2-.978-2.17-2.183-2.17s-2.182.97-2.182 2.17v3.307h-3.342c-1.205 0-2.182.972-2.182 2.17s.978 2.17 2.183 2.17h3.342v3.325c0 1.198.977 2.17 2.182 2.17s2.182-.97 2.182-2.17v-3.324h3.324c1.205 0 2.182-.972 2.182-2.17zM23.192 36.59v3.962h5.597l-.002-3.962h-5.596zm-7.76-13.388h-3.98V28.8l3.98-.002v-5.596zm3.17 13.388c-1.75 0-3.17-1.41-3.17-3.152v-.627l-3.98.002v3.4c0 2.397 1.954 4.34 4.365 4.34h3.364V36.59h-.577z"/></symbol><symbol id="pcc-icon-redact-textselection" viewBox="0 0 52 52"><path d="M25.73 34.585c.5-.575.27-.332 0-1.14-2.904-8.7 4.777-16.912 11.766-13.08.583.318.875-.193 1.248-.62l.158-.19c.127-.082.26-.188.402-.35 1.576-1.798 1.768-4.045.192-5.842-1.576-1.797-4.323-2.463-5.9-.666l-.082.108L19.134 29.2l5.665 6.46.93-1.076zM21 38.715l-4.5-5.09-.045-.04-.107-.097-.155-.12-.2-.053-.116-.03h-.02l-.115.03-.2.054-.156.118-.108.098-.044.04-4.502 5.088c-.164.187-.242.433-.238.68v.005c0 .518.368.938.823.938h4.534l.007.002.01-.002.01.002.006-.002h4.534c.455 0 .823-.42.823-.94v-.005c.003-.246-.075-.492-.24-.68zm-2.738-8.518l-1.007 1.148.038.043c-.206.17-.348.434-.348.746v.006c-.003.245.075.492.24.68l4.502 5.087c.15.205.37.343.622.343.305 0 .562-.2.704-.483.096-.12.347-.425.923-1.1l-5.674-6.47zm15.742-8.827c-4.143 0-7.5 3.354-7.5 7.492 0 4.137 3.357 7.49 7.5 7.49s7.5-3.353 7.5-7.49c0-4.138-3.357-7.492-7.5-7.492zm-5.395 7.527c0-3 2.435-5.433 5.44-5.433 1.23 0 2.353.423 3.264 1.11l-7.593 7.583c-.688-.91-1.11-2.03-1.11-3.26zm5.44 5.434c-1.07 0-2.06-.318-2.9-.85l7.49-7.478c.532.84.85 1.828.85 2.895 0 3-2.435 5.434-5.44 5.434zm-10.896 4.627v1.406H37.71v-1.407H23.155z"/></symbol><symbol id="pcc-icon-redact-transparent" viewBox="0 0 52 52"><path d="M10.99 11.095v29.81h30.02v-29.81H10.99zm4.223 4.285h10.123l-10.123 9.042V15.38zm0 16.626L31.3 15.38h4.775v4.864L20.315 35.92h-5.1v-3.914zm12.63 3.915l8.23-7.914v7.915h-8.23z"/></symbol><symbol id="pcc-icon-redact" viewBox="0 0 52 52"><path d="M30.18 40.79c-4.658 0-8.434-3.758-8.434-8.392s3.777-8.39 8.435-8.39c4.66 0 8.436 3.756 8.436 8.39s-3.777 8.39-8.435 8.39zm-6.066-8.35c0 1.375.465 2.64 1.24 3.66l8.56-8.514c-1.025-.77-2.298-1.234-3.682-1.234-3.38 0-6.118 2.725-6.118 6.087zM35.4 29.187l-8.435 8.39c.946.596 2.064.947 3.267.947 3.38 0 6.118-2.725 6.118-6.086 0-1.198-.352-2.31-.952-3.252zm-15.513 3.25c0 3.154 1.432 5.973 3.68 7.86H13.384V19.33l8.162-8.12h14.547v12.773c-1.668-1.15-3.69-1.825-5.872-1.825-5.707 0-10.334 4.603-10.334 10.28zm3.267-20.255L14.35 20.94h8.804v-8.757z"/></symbol><symbol id="pcc-icon-rotate-doc-cc" viewBox="0 0 52 52"><path d="M33.892 37.2l-.005-.01-1.99-7.77c-.2-.778-.99-1.25-1.766-1.05-.43.11-.75.412-.928.786l-1.676 2.82c-3.808-2.41-5.058-7.422-2.76-11.33 1.475-2.503 4.05-3.94 6.743-4.076L31.222 11c-4.488.224-8.778 2.627-11.234 6.8-3.854 6.548-1.744 14.98 4.69 18.963l-1.193 2.006c-.208.352-.245.756-.144 1.124v.01c.045.175.128.33.227.47v.002c.34.48.94.732 1.54.58l7.728-1.982h.01c.39-.1.7-.348.888-.67.19-.32.257-.714.156-1.103z"/></symbol><symbol id="pcc-icon-rotate-doc-cw" viewBox="0 0 52 52"><path d="M32.012 17.8c-2.456-4.174-6.746-6.576-11.234-6.8l-.286 5.57c2.693.134 5.268 1.572 6.742 4.077 2.3 3.906 1.05 8.92-2.76 11.328l-1.675-2.82c-.18-.373-.498-.676-.93-.785-.775-.198-1.565.273-1.765 1.05l-1.99 7.77-.006.01c-.1.39-.034.784.155 1.105.188.32.5.57.887.67h.01l7.73 1.98c.6.154 1.2-.1 1.538-.58.1-.142.182-.296.228-.472v-.01c.1-.367.063-.77-.144-1.124l-1.193-2.007c6.435-3.984 8.545-12.415 4.692-18.962z"/></symbol><symbol id="pcc-icon-rotate-page-cc" viewBox="0 0 52 52"><path d="M13.715 10.574v29.15H36.53v-29.15H13.715zm20.016 26.16H17.3V13.58h16.43v23.15zm-8.742-4.12l-.82 1.377c-.142.243-.167.52-.098.774v.006c.03.12.088.227.156.323.233.33.646.504 1.057.4l5.31-1.362h.008c.268-.068.48-.238.61-.46.13-.22.177-.49.108-.757l-.003-.007-1.368-5.338c-.137-.535-.68-.86-1.213-.722-.296.075-.515.283-.638.54l-1.15 1.936c-2.617-1.654-3.475-5.098-1.896-7.782 1.012-1.72 2.78-2.708 4.63-2.8l-.196-3.826c-3.083.154-6.03 1.804-7.718 4.672-2.647 4.497-1.197 10.29 3.222 13.026z"/></symbol><symbol id="pcc-icon-rotate-page-cw" viewBox="0 0 52 52"><path d="M14.592 11.425v29.15h22.815v-29.15H14.592zm19.146 26.16H17.39V14.432h16.348v23.15zm-13.216-2.602h.008l5.31 1.36c.412.106.824-.067 1.056-.397.068-.098.125-.204.157-.324v-.006c.07-.253.043-.53-.1-.773l-.818-1.378c4.42-2.737 5.87-8.53 3.223-13.026-1.687-2.868-4.634-4.52-7.718-4.673l-.197 3.826c1.85.092 3.62 1.08 4.63 2.8 1.58 2.683.722 6.127-1.894 7.782l-1.152-1.936c-.123-.258-.342-.466-.638-.54-.532-.137-1.075.186-1.213.72l-1.368 5.34-.005.006c-.07.268-.022.538.107.758.13.22.343.39.61.46z"/></symbol><symbol id="pcc-icon-save" viewBox="0 0 52 52"><path d="M40.676 22.933v13.785c0 1.322.198 2.958-.552 3.546-.874.686-3.506.513-5.33.462V30.16c0-.942-.768-1.706-1.715-1.706H18.023c-.947 0-1.715.764-1.715 1.706v10.554h-3.15c-.446-.12-.927-.457-1.156-.8-.316-.472-.25-1.308-.25-2.097V14.79c0-.576-.08-1.325.1-1.748.16-.376.544-.77.904-.95l.452-.15h2.528v9.69c0 .944.768 1.707 1.715 1.707h10.864c.947 0 1.715-.765 1.715-1.707V11.94c.773-.003 1.57-.04 2.16.152 1.515.496 2.362 1.55 3.364 2.547l2.51 2.497c1.085 1.08 2.09 1.927 2.562 3.646.162.59.05 1.47.05 2.148zm-14.17-1.506h-3.037c-.515 0-.93-.414-.93-.925V14.64c0-.512.415-.926.93-.926h3.035c.514 0 .93.414.93.925V20.5c0 .51-.417.925-.93.925zm-6.033 9.295h10.683c.672 0 1.217.54 1.217 1.21V39.6c0 .668-.545 1.21-1.217 1.21H20.473c-.672 0-1.217-.542-1.217-1.21v-7.668c0-.67.545-1.21 1.217-1.21z"/></symbol><symbol id="pcc-icon-search-quick-actions" viewBox="0 0 52 52"><path d="M18.5 11v16.5H23V41l10.5-18h-6l6-12h-15z"/></symbol><symbol id="pcc-icon-search" viewBox="0 0 52 52"><path fill-rule="evenodd" d="M40.238 36.198c1.04 1.033 1.04 2.71 0 3.745-1.04 1.035-2.725 1.035-3.765 0l-7.75-7.71-.053-.064c-4.434 2.89-10.444 2.4-14.34-1.476-4.465-4.44-4.465-11.64 0-16.082 4.463-4.44 11.7-4.44 16.165 0 3.74 3.722 4.335 9.376 1.805 13.725l.188.152 7.75 7.708zM26.62 18.418c-2.323-2.312-6.092-2.312-8.415 0-2.324 2.312-2.324 6.06 0 8.37 2.324 2.313 6.092 2.313 8.416 0 2.325-2.31 2.325-6.058 0-8.37z" clip-rule="evenodd"/></symbol><symbol id="pcc-icon-text-bold" viewBox="0 0 52 52"><path d="M13.65 40.667h10.037c3.795-.026 6.19-.093 7.18-.2 1.583-.174 2.914-.637 3.994-1.39 1.08-.754 1.932-1.762 2.556-3.02.624-1.262.935-2.56.935-3.893 0-1.694-.482-3.168-1.447-4.422-.966-1.254-2.347-2.142-4.144-2.663 1.273-.574 2.282-1.434 3.026-2.58.744-1.148 1.116-2.41 1.116-3.782 0-1.267-.302-2.412-.905-3.43-.603-1.022-1.358-1.838-2.263-2.452-.905-.614-1.93-1.018-3.078-1.21-1.147-.195-2.887-.29-5.22-.29H13.648v29.332zm9.373-24.452c2.803 0 4.5.034 5.09.1.99.12 1.74.465 2.242 1.032.503.567.754 1.304.754 2.21 0 .947-.293 1.71-.876 2.29-.583.58-1.385.932-2.404 1.05-.563.068-2.005.102-4.325.102h-3.902v-6.785h3.42zM24.41 27.88c2.71 0 4.47.14 5.28.42.812.282 1.432.728 1.862 1.342.43.613.644 1.36.644 2.24 0 1.04-.28 1.872-.835 2.492-.555.62-1.276 1.01-2.16 1.17-.578.12-1.94.18-4.084.18h-5.51V27.88h4.806z"/></symbol><symbol id="pcc-icon-text-center" viewBox="0 0 52 52"><path d="M11.34 39.195h29.32V34.44H11.34v4.755zm0-26.39v4.756h29.32v-4.755H11.34zm4.97 10.95v4.755H35.7v-4.756H16.31z"/></symbol><symbol id="pcc-icon-text-italic" viewBox="0 0 52 52"><path d="M28.753 39.736c-.686 0-1.306-.17-1.86-.514-.412-.257-.657-.564-.737-.92-.103-.472-.024-1.444.235-2.915l3.31-18.77c.308-1.744.68-2.844 1.12-3.3.665-.7 1.59-1.05 2.777-1.05h1.05l.14-.794h-12.45l-.14.793h1.028c.686 0 1.313.172 1.88.514.398.257.637.565.717.92.102.472.024 1.444-.235 2.915l-3.31 18.77c-.307 1.744-.673 2.844-1.096 3.3-.665.7-1.598 1.05-2.798 1.05h-1.028l-.14.794h12.45l.14-.794h-1.05z"/></symbol><symbol id="pcc-icon-text-left" viewBox="0 0 52 52"><path d="M11.34 39.195h29.32V34.44H11.34v4.755zm0-26.39v4.756h29.32v-4.755H11.34zm.353 10.95v4.755h19.39v-4.756h-19.39z"/></symbol><symbol id="pcc-icon-text-right" viewBox="0 0 52 52"><path d="M11.34 39.195h29.32V34.44H11.34v4.755zm0-26.39v4.756h29.32v-4.755H11.34zm9.837 10.95v4.755h19.39v-4.756h-19.39z"/></symbol><symbol id="pcc-icon-text-strikeout" viewBox="0 0 52 52"><path d="M16.862 23.005h7.22c-1.94-.524-3.195-1.04-3.75-1.544-.728-.65-1.09-1.48-1.09-2.488 0-1.16.513-2.154 1.54-2.978 1.03-.823 2.666-1.235 4.913-1.235 2.157 0 3.788.452 4.893 1.36 1.104.906 1.752 2.246 1.944 4.02l3.562-.268c-.064-1.647-.524-3.12-1.38-4.423s-2.077-2.29-3.666-2.96c-1.59-.67-3.425-1.004-5.505-1.004-1.89 0-3.607.32-5.15.957-1.546.638-2.72 1.573-3.524 2.805-.805 1.232-1.207 2.556-1.207 3.974 0 1.29.33 2.454.986 3.495l.215.29zm13.87 5.737c.826.39 1.45.843 1.857 1.365.51.658.765 1.427.765 2.307 0 .868-.265 1.67-.795 2.403s-1.337 1.312-2.422 1.733c-1.085.42-2.336.632-3.753.632-1.596 0-3.032-.278-4.31-.833-1.276-.556-2.217-1.284-2.824-2.184-.605-.9-.992-2.052-1.158-3.456l-3.504.306c.05 1.877.565 3.56 1.542 5.046.977 1.487 2.323 2.6 4.04 3.34 1.717.74 3.846 1.112 6.386 1.112 2.004 0 3.807-.367 5.41-1.1 1.602-.735 2.83-1.763 3.686-3.084.855-1.32 1.283-2.73 1.283-4.222 0-1.244-.28-2.362-.813-3.366h-5.39zm-17.65-4.57v2.855h25.837v-2.855H13.08z"/></symbol><symbol id="pcc-icon-text-underline" viewBox="0 0 52 52"><path d="M16.74 40.287H35.22v-2.855H16.74v2.855zm13.852-28.573v12.79c0 1.828-.068 3.137-.205 3.925-.137.787-.54 1.452-1.214 1.994-.673.54-1.67.812-2.996.812-1.304 0-2.33-.286-3.083-.86-.752-.572-1.227-1.332-1.427-2.278-.116-.59-.173-1.877-.173-3.863v-12.52h-4.668v12.33c0 2.586.152 4.54.457 5.866.21.895.647 1.75 1.31 2.563.66.815 1.563 1.477 2.703 1.987s2.815.765 5.022.765c1.83 0 3.312-.234 4.447-.702 1.135-.468 2.042-1.096 2.72-1.884.678-.79 1.143-1.757 1.395-2.903.252-1.146.38-3.106.38-5.882V11.713h-4.67z"/></symbol><symbol id="pcc-icon-textSign" viewBox="0 0 52 52"><path d="M14.142 14.29c.044.1.102.174.174.22.072.048.15.072.24.072h6.02v19.834c0 .095.023.177.067.247.044.07.12.127.232.168.11.042.26.077.447.107s.413.044.678.044c.276 0 .504-.014.686-.043.182-.03.328-.065.438-.106.11-.04.187-.096.232-.167.044-.07.066-.153.066-.247V14.582h6.02c.09 0 .17-.024.24-.07.072-.048.133-.122.183-.222.05-.1.085-.233.107-.398.022-.165.033-.36.033-.583 0-.225-.01-.422-.033-.593-.022-.17-.058-.31-.107-.415-.05-.106-.11-.183-.182-.23-.072-.047-.152-.07-.24-.07H14.557c-.088 0-.168.023-.24.07-.072.047-.13.124-.174.23-.044.106-.08.245-.107.415-.028.17-.04.368-.04.592 0 .223.013.417.04.582.027.165.063.298.108.398zm26.482 8.495c-.255-.865-.655-1.618-1.2-2.26-.545-.642-1.24-1.152-2.086-1.532-.846-.38-1.87-.57-3.073-.57-1.124 0-2.14.194-3.047.58-.908.384-1.683.937-2.324 1.656-.64.72-1.132 1.595-1.473 2.627-.34 1.032-.51 2.196-.51 3.49 0 1.362.164 2.556.494 3.583.33 1.027.817 1.88 1.464 2.56.647.682 1.444 1.195 2.392 1.54.948.347 2.052.52 3.31.52.727 0 1.41-.053 2.052-.16.64-.105 1.206-.225 1.694-.36.488-.133.885-.27 1.192-.41.306-.138.49-.24.553-.3l.154-.192.085-.226.042-.285.017-.377c0-.2-.01-.37-.027-.51s-.043-.25-.077-.328c-.034-.078-.083-.137-.146-.176-.063-.04-.134-.06-.214-.06-.137 0-.34.06-.608.177-.268.117-.61.248-1.027.393-.415.145-.908.276-1.48.393-.57.116-1.22.175-1.95.175-.923 0-1.704-.128-2.343-.385-.64-.257-1.158-.625-1.557-1.105s-.684-1.055-.856-1.724c-.17-.67-.256-1.422-.256-2.26h10.09c.286 0 .54-.09.762-.275.222-.184.334-.494.334-.93v-.5c0-.983-.128-1.907-.383-2.772zm-10.802 2.453c.023-.614.13-1.202.325-1.766.194-.564.468-1.057.822-1.482.353-.424.793-.764 1.318-1.02.525-.258 1.136-.386 1.833-.386 1.36 0 2.385.413 3.076 1.24.69.825 1.02 1.963.985 3.414h-8.358zm-18.815 14.76H41v-3.01H11.008v3.01zm1.985-5.013l1-2 1 2h2l-2-3 2-3h-2l-1 2-1-2h-2l2 3-2 3h2z"/></symbol><symbol id="pcc-icon-texttool" viewBox="0 0 52 52"><path d="M33.28 13.26v-1.97H18.72v1.97h4.82v25.48h-4.82v1.968H33.28V38.74h-5.774V13.26z"/></symbol><symbol id="pcc-icon-thumbnails" viewBox="0 0 52 52"><path d="M29.4 11.38v11.7h11.656v-11.7H29.4zM11.924 40.62h11.648v-11.7H11.924v11.7zm0-17.54h11.648v-11.7H11.924v11.7zM29.4 40.62h11.656v-11.7H29.4v11.7z"/></symbol><symbol id="pcc-icon-triangle-down" viewBox="0 0 52 52"><path d="M39.5 11.515l-27-.004L26 40.49l13.5-28.974z"/></symbol><symbol id="pcc-icon-triangle-up" viewBox="0 0 52 52"><path d="M39.5 40.485l-27 .004L26 11.51l13.5 28.974z"/></symbol><symbol id="pcc-icon-unknown" viewBox="0 0 52 52"><path d="M27.61 31.54v2.92a.56.56 0 0 1-.17.42.6.6 0 0 1-.44.12h-3a.6.6 0 0 1-.43-.16.56.56 0 0 1-.17-.42v-2.88a.56.56 0 0 1 .17-.42A.6.6 0 0 1 24 31h3a.6.6 0 0 1 .43.16.56.56 0 0 1 .18.38zm4.83-9a4.5 4.5 0 0 1-.28 1.64 3.31 3.31 0 0 1-.86 1.26 8.81 8.81 0 0 1-1 .8q-.41.27-1.12.66t-.88.51a2.36 2.36 0 0 0-.49.44.81.81 0 0 0-.22.53v.58a.56.56 0 0 1-.17.42.6.6 0 0 1-.43.16H24a.6.6 0 0 1-.43-.16.56.56 0 0 1-.17-.42v-1.28a3.37 3.37 0 0 1 .2-1.18 3.24 3.24 0 0 1 .45-.87 3.07 3.07 0 0 1 .74-.65 7.8 7.8 0 0 1 .77-.46l.84-.38a7.41 7.41 0 0 0 1.42-.78 1.08 1.08 0 0 0 .42-.89 1.55 1.55 0 0 0-.82-1.3 3.22 3.22 0 0 0-1.8-.54 3.15 3.15 0 0 0-1.79.49 8.48 8.48 0 0 0-1.51 1.51.56.56 0 0 1-.47.22.6.6 0 0 1-.36-.11l-2-1.49a.52.52 0 0 1-.23-.36.54.54 0 0 1 .09-.42A7.42 7.42 0 0 1 25.88 17a7.12 7.12 0 0 1 4.5 1.63 4.85 4.85 0 0 1 2.07 3.87zm-6.94-8.21a12.11 12.11 0 0 0-4.69.93A12.24 12.24 0 0 0 17 17.75a11.76 11.76 0 0 0-2.58 3.72 11.14 11.14 0 0 0 0 9.06A11.76 11.76 0 0 0 17 34.25a12.24 12.24 0 0 0 3.85 2.49 12.3 12.3 0 0 0 9.38 0A12.24 12.24 0 0 0 34 34.25a11.76 11.76 0 0 0 2.58-3.72 11.14 11.14 0 0 0 0-9.06A11.76 11.76 0 0 0 34 17.75a12.24 12.24 0 0 0-3.85-2.49 12.11 12.11 0 0 0-4.65-.93zM40 26a13.33 13.33 0 0 1-1.94 7 14.2 14.2 0 0 1-5.28 5.1 15 15 0 0 1-14.56 0 14.2 14.2 0 0 1-5.28-5.1 13.67 13.67 0 0 1 0-14.05 14.2 14.2 0 0 1 5.28-5.1 15 15 0 0 1 14.56 0A14.2 14.2 0 0 1 38.06 19 13.33 13.33 0 0 1 40 26z" fill="#7d7f85"/></symbol><symbol id="pcc-icon-updown" viewBox="0 0 52 52"><path d="M26.58 24.157l-7.492-9.92-7.597 9.955 4.777-.01.057 13.582 5.175.004-.058-13.6 5.14-.01zm8.973 3.466l-.056-13.388-5.175-.004.056 13.405-4.96.01 7.493 9.92 7.598-9.954-4.956.012z"/></symbol><symbol id="pcc-icon-view" viewBox="0 0 52 52"><path fill-rule="evenodd" d="M25.925 38.345c-8.07 0-14.972-9.134-14.972-12.472s6.11-12.218 14.783-12.218c8.56 0 15.31 8.833 15.31 12.08 0 3.245-7.05 12.61-15.122 12.61zm-.168-20.65c-6.138 0-10.462 5.777-10.462 8.297 0 2.52 4.884 8.402 10.596 8.402s10.703-6.056 10.703-8.506-4.777-8.19-10.836-8.19zm.095 13.908c-3.248 0-5.88-2.62-5.88-5.85s2.632-5.85 5.88-5.85 5.88 2.62 5.88 5.85-2.632 5.85-5.88 5.85z" clip-rule="evenodd"/></symbol><symbol id="pcc-icon-wholeword" viewBox="0 0 52 52"><path d="M26.06 21.626l3.715 13.866h3.994l4.527-18.547h-3.79L31.645 29.9l-3.27-12.955H23.9l-3.41 12.74-2.81-12.74h-3.855l4.45 18.547h4.084l3.7-13.866zM13.08 11.142v2.855h25.84v-2.855H13.08zm0 29.716h25.84v-2.855H13.08v2.855z"/></symbol><symbol id="pcc-icon-wildcard" viewBox="0 0 52 52"><path d="M25.773 30.906l5.572 9.157 6.316-4.148c-.577-.71-1.36-1.628-2.352-2.75l-4.953-5.544c4.018-.656 7.554-1.326 10.608-2.01l-2.188-7.434c-2.09.795-4.375 1.753-6.852 2.875-1.816.85-3 1.384-3.55 1.602.743-5.337 1.115-9.005 1.115-11.004H22.14c0 2.82.33 6.46.99 10.922-2.833-1.75-6.053-3.352-9.658-4.804l-2.435 7.227c.743.274 2.284.698 4.623 1.273 3.247.794 5.215 1.246 5.903 1.355-.22.22-.757.74-1.61 1.56-2.146 2.028-4.21 4.15-6.192 6.366l6.234 4.805c2.174-3.34 4.1-6.487 5.78-9.444z"/></symbol><symbol id="pcc-icon-wrench" viewBox="0 0 52 52"><path d="M30.216 30.017s4.557.688 7.517-2.51C42.41 22.454 39.71 17.23 39.71 17.23l-6.078 6.136s-2.486 1.074-4.235-.693c-1.75-1.767-.686-4.277-.686-4.277l6.078-6.136S28.835 9.617 24.5 14.145c-3.172 3.313-2.487 7.59-2.487 7.59l-9.143 9.23s-3.33 3.915.443 7.725 7.65.448 7.65.448l9.253-9.12z"/></symbol><symbol id="pcc-icon-x" viewBox="0 0 52 52"><path d="M38.11 15.665c.148-.127.248-.27.3-.427.053-.158.08-.3.08-.427 0-.273-.122-.616-.365-1.027-.243-.41-.55-.812-.92-1.202-.37-.39-.776-.732-1.22-1.027-.444-.295-.856-.443-1.237-.443-.21 0-.396.037-.555.11-.16.075-.3.175-.428.302l-8.783 8.764-8.846-8.86c-.254-.273-.54-.41-.856-.41-.296 0-.655.127-1.078.38-.423.253-.83.565-1.22.933-.392.368-.73.77-1.016 1.2-.285.434-.428.85-.428 1.25 0 .17.042.34.127.507.084.17.18.316.285.443l8.783 8.796-8.878 8.828c-.254.253-.38.538-.38.854 0 .274.12.623.365 1.044.243.422.55.828.92 1.218.368.39.77.728 1.204 1.012.433.285.84.427 1.22.427.19 0 .37-.038.54-.112.17-.074.317-.174.444-.3l8.815-8.733 8.846 8.86c.126.105.258.194.395.268.137.074.29.11.46.11.275 0 .623-.126 1.046-.38.424-.252.83-.563 1.222-.932.39-.368.73-.774 1.015-1.217.285-.443.428-.854.428-1.234 0-.17-.032-.338-.095-.507-.063-.17-.17-.327-.317-.475L29.2 24.525l8.91-8.86z"/></symbol><symbol id="pcc-icon-zoomin" viewBox="0 0 52 52"><path d="M37.18 22.688h-7.886V14.82c0-1.837-1.48-3.326-3.308-3.326-1.83 0-3.31 1.49-3.31 3.326v7.868H14.82c-1.837 0-3.326 1.48-3.326 3.31 0 1.828 1.49 3.308 3.326 3.308h7.856v7.875c0 1.838 1.48 3.327 3.31 3.327 1.828 0 3.308-1.49 3.308-3.326v-7.874h7.887c1.838 0 3.327-1.48 3.327-3.308 0-1.83-1.49-3.31-3.326-3.31z"/></symbol><symbol id="pcc-icon-zoomout" viewBox="0 0 52 52"><path d="M14.805 22.686h22.39c1.84 0 3.33 1.483 3.33 3.313s-1.49 3.313-3.33 3.313h-22.39c-1.84 0-3.33-1.483-3.33-3.313s1.49-3.314 3.33-3.314z"/></symbol></svg>