<?xml version="1.0" encoding="UTF-8"?><!DOCTYPE svg PUBLIC "-//W3C//DTD SVG 1.1//EN" "http://www.w3.org/Graphics/SVG/1.1/DTD/svg11.dtd"><svg xmlns="http://www.w3.org/2000/svg" xmlns:xlink="http://www.w3.org/1999/xlink"><symbol id="pcc-icon-alert" viewBox="0 0 52 52"><path d="M39.626 34.664L28.114 14.2l-.013-.014c-.578-.43-1.336-.644-2.095-.643-.757-.001-1.516.214-2.094.643l-.013.014-11.512 20.464c-1.155.859-1.155 2.251 0 3.11.643.478 1.502.662 2.342.608l22.762.075c.834 0 1.581-.262 2.118-.675l.016-.008a2.25 2.25 0 00.587-.657l.003-.003c.488-.809.303-1.786-.59-2.45zm-11.786-.745c-.003.867-.823 1.572-1.832 1.575-1.009.002-1.825-.699-1.822-1.566l.024.019c.003-.867.823-1.572 1.832-1.575 1.009-.002 1.825.699 1.823 1.567l-.025-.019zm0-4.974c-.003.867-.823 1.572-1.832 1.575-1.009.002-1.825-.699-1.822-1.566l.024-7.939c.003-.867.823-1.572 1.832-1.575 1.009-.002 1.825.699 1.823 1.567l-.025 7.939z"/></symbol><symbol id="pcc-icon-all" viewBox="0 0 52 52"><path d="M34.136 30.432V14.509h-9.174v-3.53h12.723v19.453h-3.549zm-1.774 5.295h-3.549V19.804h-9.174v-3.529h12.723v19.453zm-5.323 5.295H14.316V21.569h12.723v19.453z"/></symbol><symbol id="pcc-icon-annotate-arrow" viewBox="0 0 52 52"><path d="M40.962 37.325L24.155 20.607l6.618-6.287-19.736-2.968 2.515 19.329 7.185-6.826L37.621 40.65z"/></symbol><symbol id="pcc-icon-annotate-disabled" viewBox="0 0 52 52"><path d="M39.88 17.47l.01.009-.048.047-.011.016-.016.01-4.306 4.283a9.78 9.78 0 00-3.741-.745c-5.393 0-9.764 4.348-9.764 9.713 0 1.32.27 2.575.749 3.722l-4.308 4.285-.01-.009c-.139.194-.334.341-.592.341a.756.756 0 01-.58-.279l-4.2-4.141a.76.76 0 01-.223-.553l-.001-.005c0-.257.148-.45.343-.588l-.053-.054 21.357-21.245.021-.032.033-.021.034-.034.007.007c1.475-1.399 3.802-1.393 5.251.049a3.72 3.72 0 01.049 5.223zm-8.293-3.775l-.017.017-.004.005-.006.004-7.842 7.801-.004.005-.006.004-.088.088-.018-.018c-.522.422-1.281.409-1.767-.074s-.498-1.238-.074-1.758l-.017-.017.084-.083.008-.011.011-.008 7.832-7.792.008-.011.012-.007.012-.013.003.003a1.331 1.331 0 011.853.017c.511.509.513 1.326.017 1.844l.004.003zM16.846 40.073l.001.005a.766.766 0 01-.768.764h-4.23l-.006.001a.771.771 0 01-.77-.765l.001-.006v-4.207c0-.422.344-.765.768-.765.236 0 .44.113.58.279l4.2 4.141a.759.759 0 01.223.553zm14.885-17.235c4.402 0 7.97 3.55 7.97 7.929 0 4.378-3.568 7.928-7.97 7.928s-7.97-3.55-7.97-7.928c0-4.379 3.569-7.929 7.97-7.929zm.049 13.717c3.193 0 5.781-2.575 5.781-5.751a5.69 5.69 0 00-.905-3.064l-7.957 7.915a5.759 5.759 0 003.081.901zm-4.599-2.3l8.067-8.025a5.747 5.747 0 00-3.468-1.176c-3.193 0-5.781 2.575-5.781 5.75 0 1.301.45 2.487 1.182 3.451z"/></symbol><symbol id="pcc-icon-annotate-ellipse-filled" viewBox="0 0 52 52"><path d="M26 11.148c8.246 0 14.931 6.65 14.931 14.852 0 8.203-6.685 14.853-14.931 14.853-8.246 0-14.931-6.649-14.931-14.853 0-8.202 6.685-14.852 14.931-14.852z"/></symbol><symbol id="pcc-icon-annotate-ellipse" viewBox="0 0 52 52"><path d="M26 11.197c-8.218 0-14.881 6.628-14.881 14.803S17.781 40.802 26 40.802 40.881 34.175 40.881 26 34.219 11.197 26 11.197zm-.047 25.457c-5.941 0-10.758-4.79-10.758-10.7 0-5.91 4.816-10.701 10.758-10.701 5.941 0 10.758 4.79 10.758 10.701 0 5.91-4.817 10.7-10.758 10.7z"/></symbol><symbol id="pcc-icon-annotate-freehand" viewBox="0 0 52 52"><path d="M35.315 18.662c-1.99-2.008-5.266-4.488-6.133-3.601-.779.796 2.191 3.056 4.114 5.119l-.002.001c3.382 3.698 5.989 8.504 1.747 11.655-1.931 1.434-6.667-1.025-10.239-4.678l.033-.029c-2.022-1.984-5.426-4.505-6.196-3.755-.854.831 2.233 3.501 4.157 5.565 3.368 3.658 5.454 8.739 2.916 10.537-3.369 2.385-8.085.407-11.656-3.246l2.808-2.808c1.99 2.008 4.881 3.828 5.612 3.115.583-.568-1.272-3.104-3.195-5.167l.003-.002c-3.353-3.7-5.857-8.148-3.165-10.369 2.925-2.413 8.382-.111 11.953 3.542l-.029.026c2.008 1.961 4.254 3.985 4.99 3.393.784-.63-1.479-3.286-3.402-5.349l.001-.001c-3.365-3.676-6.03-7.697-2.839-9.926 4.146-2.896 7.58-.099 11.152 3.554l-2.629 2.423z"/></symbol><symbol id="pcc-icon-annotate-line" viewBox="0 0 52 52"><path d="M14.72 40.739l-3.537-3.519L37.28 11.26l3.538 3.519-26.097 25.96z"/></symbol><symbol id="pcc-icon-annotate-polyline" viewBox="0 0 52 52"><path d="M38.5 30.5v-6h-6v.566l-13-3.067v-.335l10-3.877V19.5h6v-6h-6v2.127l-10 3.878V18.5h-6v6h6v-.445l13 3.067v1.158L22.066 32.5H16.5v6h6v-4.151l11-3.849h5z"/></symbol><symbol id="pcc-icon-annotate-rectangle-filled" viewBox="0 0 52 52"><path d="M10.99 11.095h30.02v29.81H10.99v-29.81z"/></symbol><symbol id="pcc-icon-annotate-rectangle" viewBox="0 0 52 52"><path d="M11.125 11.229v29.543h29.75V11.229h-29.75zm25.26 24.566H15.524V15.254h20.861v20.541z"/></symbol><symbol id="pcc-icon-annotate-stamp" viewBox="0 0 52 52"><path d="M37.741 40.343H14.259a3.28 3.28 0 01-3.288-3.271v-1.356h30.058v1.356a3.28 3.28 0 01-3.288 3.271zm-26.77-9.37a3.28 3.28 0 013.288-3.271h9.019v-4.307c.874.16 1.786.254 2.731.254.942 0 1.85-.093 2.722-.252v4.305h9.01a3.28 3.28 0 013.288 3.271v2.969H10.971v-2.969zm15.043-9.543c-3.801 0-6.882-2.188-6.882-4.887 0-2.698 3.082-4.887 6.882-4.887 3.801 0 6.882 2.188 6.882 4.887 0 2.699-3.081 4.887-6.882 4.887z"/></symbol><symbol id="pcc-icon-annotate-text" viewBox="0 0 52 52"><path d="M27.937 40.708V14.763h9.783v-3.471H14.28v3.471h9.743v25.945h3.913z"/></symbol><symbol id="pcc-icon-annotation-add" viewBox="0 0 52 52"><path d="M24.226 35.773l-2.872-2.832a.518.518 0 00-.397-.19.524.524 0 00-.525.522v2.877l-.001.004a.522.522 0 00.526.523h2.896c.29 0 .525-.234.525-.522l-.001-.002a.517.517 0 00-.152-.379zm3.564-12.304a.903.903 0 001.208.051l.013.013.06-.06.004-.003.003-.003 5.362-5.335.004-.001.002-.004.012-.012-.002-.002a.897.897 0 00-.012-1.26.91.91 0 00-1.268-.012l-.001-.002-.008.008-.008.005-.005.008-5.356 5.327-.008.005-.005.008-.057.057.011.012a.892.892 0 00.051 1.202zm12.305-6.346a2.58 2.58 0 00-3.595-.037l-.001-.001-.005.005-.041.033-.033.04-14.585 14.509.024.024a.512.512 0 00-.222.415l.001.003a.524.524 0 00.152.379l2.872 2.831a.519.519 0 00.397.191c.19 0 .349-.106.441-.256l14.574-14.498.02-.016.016-.02.024-.022-.002-.003a2.548 2.548 0 00-.038-3.576zm-14.824 5.213c0-1.1-.896-1.991-2.001-1.991h-3.049v-3.033c0-1.099-.896-1.991-2.001-1.991s-2.001.891-2.001 1.991v3.033h-3.065a1.996 1.996 0 00-2.001 1.991c0 1.099.896 1.99 2.001 1.99h3.065v3.049c0 1.099.896 1.991 2.001 1.991s2.001-.891 2.001-1.991v-3.049h3.049c1.105 0 2.001-.89 2.001-1.99z"/></symbol><symbol id="pcc-icon-beginswith" viewBox="0 0 52 52"><path d="M36.903 19.8a70.556 70.556 0 003.978-.755l-.821-2.787a44.04 44.04 0 00-2.569 1.078c-.681.318-1.125.518-1.331.6.279-2.001.418-3.376.418-4.125h-2.755c0 1.057.124 2.423.371 4.095a23.922 23.922 0 00-3.622-1.802l-.913 2.71c.278.103.856.262 1.733.477 1.217.298 1.955.467 2.213.509l-.604.585a39.346 39.346 0 00-2.322 2.386l2.337 1.802a69.002 69.002 0 002.167-3.542l2.089 3.433 2.368-1.555a35.586 35.586 0 00-.882-1.032l-1.857-2.078zm-13.279 8.189a4.514 4.514 0 001.981-1.689c.487-.75.731-1.576.731-2.475 0-.829-.197-1.578-.592-2.245a4.934 4.934 0 00-1.481-1.604 5.019 5.019 0 00-2.014-.792c-.75-.127-1.889-.19-3.416-.19h-7.714V38.19h6.569c2.483-.017 4.05-.061 4.699-.131 1.035-.114 1.906-.417 2.613-.91.706-.493 1.264-1.153 1.672-1.977a5.682 5.682 0 00.612-2.547c0-1.109-.316-2.073-.948-2.894-.632-.821-1.536-1.402-2.712-1.742zm-8.609-5.801h2.238c1.834 0 2.944.022 3.33.066.649.079 1.139.303 1.468.675.329.371.494.853.494 1.446 0 .62-.191 1.119-.573 1.499-.382.38-.906.609-1.573.687-.369.044-1.312.066-2.83.066h-2.554v-4.44zm7.694 11.884c-.364.405-.836.661-1.415.766-.378.079-1.268.118-2.672.118h-3.607v-5.133h3.146c1.773 0 2.924.092 3.455.275.531.184.937.476 1.218.878.281.401.421.891.421 1.466 0 .681-.182 1.225-.547 1.631z"/></symbol><symbol id="pcc-icon-border-width" viewBox="0 0 52 52"><path d="M11.297 13.315v2.99h29.405v-2.99H11.297zm0 25.37h29.405v-6.561H11.297v6.56zm0-11.915h29.405v-5.074H11.297v5.074z"/></symbol><symbol id="pcc-icon-check" viewBox="0 0 52 52"><path d="M39.986 18.418l-3.593-3.593a1.635 1.635 0 00-2.312.006L22.44 26.472l-4.519-4.519a1.635 1.635 0 00-2.312-.006l-3.593 3.593a1.635 1.635 0 00.006 2.312l5.341 5.341c.073.137.161.269.276.385l3.593 3.593c.327.327.759.482 1.189.472a1.62 1.62 0 001.229-.468l3.593-3.594c.12-.12.21-.257.284-.401l12.452-12.452c.64-.64.643-1.675.006-2.312z"/></symbol><symbol id="pcc-icon-circle" viewBox="0 0 52 52"><path d="M26 19.997a6 6 0 015.997 6.004A6 6 0 0126 32.004 6.001 6.001 0 0120.002 26 6 6 0 0126 19.997z"/></symbol><symbol id="pcc-icon-comment" viewBox="0 0 52 52"><path d="M37.28 13.179H14.719c-1.999 0-3.62 1.612-3.62 3.6v11.624c0 1.988 1.62 3.6 3.62 3.6h2.877l-1.713 6.817 9.743-6.817h11.653c1.999 0 3.62-1.612 3.62-3.6V16.779c0-1.988-1.621-3.6-3.62-3.6zm-1.585 13.45H16.451v-2.297h19.244v2.297zm0-6.636H16.451v-2.297h19.244v2.297z"/></symbol><symbol id="pcc-icon-context" viewBox="0 0 52 52"><path d="M19.148 29.803c0-.555.047-1.095.117-1.627h-3.8V14.832H28.88v4.569a7.743 7.743 0 012.889.975v-9.152H11.813v19.817h7.401a12.328 12.328 0 01-.067-1.238zm20.291-1.668l-2.508-4.482a.547.547 0 00-.274-.234c-.488-.67-1.394-.907-2.139-.495a1.652 1.652 0 00-.645 2.253l.208.242.091.162c-.273-.055-.569-.02-.868.071l-1.227-2.193-.044-.05-.029-.091a1.67 1.67 0 00-2.265-.641 1.652 1.652 0 00-.645 2.253l.041.047.012.106 1.194 2.134-.746.413-2.176-3.888-.024-.073a1.67 1.67 0 00-2.265-.642 1.637 1.637 0 00-.688 2.119l.02.172 2.202 3.935-.719.398-5.349-9.559-.153-.173c-.492-.654-1.385-.884-2.123-.475a1.645 1.645 0 00-.663 2.195l.009.076 7.388 13.2-4.318-1.145c-.855-.081-1.741.495-1.979 1.286s.262 1.498 1.117 1.579l8.417 3.825c.457.378 1.189.437 1.842.075l7.926-4.389c.896-.751 1.985-2.048 2.113-4.05.096-1.51-.282-2.879-.732-3.961z"/></symbol><symbol id="pcc-icon-current" viewBox="0 0 52 52"><path d="M16.309 11.183H35.69v29.634H16.309V11.183z"/></symbol><symbol id="pcc-icon-datestamp" viewBox="0 0 52 52"><path d="M11 11v30h30V11H11zm27.949 27.949H13.051V18.641h25.898v20.308zm-18.787-3.758h2.533v-13.27H20.64c-.291.805-.822 1.512-1.596 2.113-.775.606-1.496 1.012-2.156 1.231v2.297c1.258-.414 2.349-1.051 3.274-1.918v9.547zm9.944-4.465c.955 0 1.754-.367 2.393-1.109-.102 1.519-.336 2.515-.703 2.996-.367.48-.815.723-1.336.723-.416 0-.75-.121-1.002-.363-.25-.238-.408-.609-.469-1.105l-2.451.266c.18 1.098.588 1.918 1.225 2.469.639.551 1.475.824 2.506.824 1.437 0 2.606-.535 3.502-1.606.894-1.067 1.342-2.813 1.342-5.231-.001-2.371-.43-4.078-1.292-5.113-.857-1.039-1.957-1.555-3.301-1.555-1.232 0-2.243.41-3.039 1.231-.799.82-1.195 1.898-1.195 3.238 0 1.289.375 2.332 1.131 3.133.754.805 1.651 1.203 2.689 1.203zm-.869-6.152c.31-.367.699-.555 1.168-.555.494 0 .926.227 1.305.68.375.449.563 1.082.563 1.902 0 .746-.166 1.309-.502 1.695-.334.383-.742.574-1.228.574-.508 0-.926-.199-1.262-.598-.338-.402-.508-1.028-.508-1.883 0-.84.158-1.445.465-1.816z"/></symbol><symbol id="pcc-icon-delete" viewBox="0 0 52 52"><path d="M36.992 14.456h-4.863l.007-.147v-.112c0-1.655-.676-2.997-1.511-2.997h-9.589c-.834 0-1.511 1.342-1.511 2.997v.112l.007.147h-4.525c-1.913 0-3.464 1.515-3.464 3.383v.126c0 1.868 1.551 1.502 3.464 1.502h21.984c1.913 0 3.464.366 3.464-1.502v-.126c0-1.868-1.551-3.383-3.464-3.383zm-.224 6.147c-.541 0-23.236-.269-23.649.093l-.009.012 2.659 15.659c.032 1.247.509 3.134 1.334 3.857.459.403 1.073.557 1.674.512l14.693.063c.596 0 1.13-.22 1.514-.569l.012-.007a1.82 1.82 0 00.419-.553l.002-.002c.349-.681.503-1.552.531-2.254l2.326-16.257-.009-.012a2.27 2.27 0 00-1.497-.542zm-16.58 15.35c-.715.062-1.318-.325-1.346-.864l-.619-10.026c-.028-.539.528-1.026 1.243-1.088.715-.062 1.318.325 1.346.864l.619 10.026c.028.539-.528 1.026-1.243 1.088zm5.993.013c-.717.001-1.298-.437-1.298-.977l-.006-10.049c0-.54.58-.979 1.297-.98.717-.001 1.298.437 1.298.977l.006 10.049c0 .54-.58.979-1.297.98zm7.224-.877c-.028.539-.631.926-1.346.864-.715-.062-1.272-.549-1.243-1.088l.619-10.026c.028-.539.631-.926 1.346-.864.715.062 1.272.549 1.243 1.088l-.619 10.026z"/></symbol><symbol id="pcc-icon-document-compare" viewBox="0 0 52 52"><path d="M39.92 26L36 21.72a2 2 0 00-.34-.3v5h4.47a2.16 2.16 0 00-.21-.42z" fill="#7d7f85"/><path d="M35.42 27.79a.84.84 0 01-.65-.3 1 1 0 01-.27-.72V21h-7.6a.84.84 0 00-.65.3 1 1 0 00-.25.7v17a1 1 0 00.26.72.83.83 0 00.65.3h12.74a.83.83 0 00.65-.3 1 1 0 00.26-.72V27.79zm2.1 6.08a.77.77 0 01-.19.52.62.62 0 01-.49.22h-4.06l1.69 1.7a.73.73 0 010 1l-.43.44a.71.71 0 01-.52.21.74.74 0 01-.53-.21L29.23 34a.71.71 0 01-.23-.5.74.74 0 01.21-.53L33 29.22a.73.73 0 011 0l.43.43a.74.74 0 010 1.05l-1.69 1.69h4.07a.62.62 0 01.49.22.77.77 0 01.19.52zM24.92 17L21 12.72a2 2 0 00-.34-.3v5h4.47a2.16 2.16 0 00-.21-.42z" fill="#7d7f85"/><path d="M19.77 18.49a1 1 0 01-.27-.72V12h-7.6a.84.84 0 00-.65.3 1 1 0 00-.25.7v17a1 1 0 00.26.72.83.83 0 00.65.3h12.74a.83.83 0 00.65-.3 1 1 0 00.26-.72V18.79h-5.14a.84.84 0 01-.65-.3zm2.75 6a.74.74 0 01-.21.53l-3.76 3.75a.73.73 0 01-1 0l-.43-.43a.74.74 0 010-1.05l1.69-1.69h-4.12a.62.62 0 01-.49-.22.77.77 0 01-.19-.52v-.74a.77.77 0 01.19-.52.62.62 0 01.49-.22h4.07l-1.69-1.7a.73.73 0 010-1l.43-.44A.71.71 0 0118 20a.74.74 0 01.53.21L22.31 24a.71.71 0 01.21.5z" fill="#7d7f85"/></symbol><symbol id="pcc-icon-download" viewBox="0 0 52 52"><path d="M39.233 23.029c-.625-.483-1.46-.67-2.277-.615l-4.876-.017V11.042H19.081v11.31l-4.251-.015c-.811 0-1.537.265-2.06.683l-.016.008a2.249 2.249 0 00-.57.665l-.003.004c-.474.817-.295 1.806.573 2.478l10.594 11.479H12.115v3.303h27.236v-3.303H28.637l10.595-11.479c1.122-.87 1.122-2.278 0-3.147z"/></symbol><symbol id="pcc-icon-edit" viewBox="0 0 52 52"><path fill-rule="evenodd" clip-rule="evenodd" d="M39.922 17.454l.004.003-.034.034-.024.03-.029.024-21.372 21.26a.757.757 0 01-.647.375.759.759 0 01-.582-.279l-4.211-4.152a.759.759 0 01-.224-.555l-.001-.004a.75.75 0 01.326-.609l-.035-.035L34.482 12.27l.049-.059.06-.049.007-.007.001.001a3.784 3.784 0 015.271.055 3.737 3.737 0 01.055 5.244zM31.6 13.663l-.017.017-.004.006-.006.004-7.864 7.822-.004.006-.006.004-.089.088-.018-.017a1.325 1.325 0 01-1.772-.074 1.307 1.307 0 01-.075-1.762l-.017-.017.084-.084.008-.011.011-.008 7.854-7.813.008-.011.011-.008.012-.012.002.003a1.335 1.335 0 011.859.017c.513.511.515 1.33.017 1.849l.004.003zm-14.781 26.45l.001.005a.768.768 0 01-.77.765h-4.241l-.006.001a.769.769 0 01-.771-.767l.001-.006v-4.219a.77.77 0 01.77-.767c.237 0 .441.112.582.28l4.211 4.152a.755.755 0 01.223.554z"/></symbol><symbol id="pcc-icon-endswith" viewBox="0 0 52 52"><path d="M22.142 15.629a47.61 47.61 0 00-2.743 1.15c-.727.34-1.2.553-1.421.64.297-2.136.446-3.604.446-4.404h-2.941c0 1.128.132 2.586.397 4.371-1.135-.701-2.423-1.342-3.866-1.923l-.975 2.893c.297.11.914.28 1.851.51 1.3.318 2.087.499 2.362.543l-.644.624a41.984 41.984 0 00-2.478 2.547l2.495 1.923a73.858 73.858 0 002.313-3.78l2.231 3.665 2.528-1.66a36.56 36.56 0 00-.942-1.101l-1.983-2.218a75.063 75.063 0 004.246-.806l-.876-2.974zm7.293 19.897v-5.585h10.357v-3.458H29.434v-4.549h11.131v-3.472H25.268v20.522h15.691v-3.458H29.434z"/></symbol><symbol id="pcc-icon-esign" viewBox="0 0 52 52"><path d="M22.705 25.83l-.013-.008-.364-.235-.006.009c-3.7-2.257-6.532-3.234-5.666-4.734.76-1.316 4.088.338 8.055 2.652l2.649-3.729c-7.14-4.23-12.479-5.345-15.453-1.284-2.309 3.152 1.092 6.712 8.15 11.059l.002-.003c3.746 2.368 7.229 4.984 6.135 6.477-.788 1.076-4.758-.806-8.724-3.12l-2.484 3.705c7.14 4.23 13.892 5.566 16.143 2.372 2.21-3.135-1.605-8.84-8.424-13.16zm17.123-14.223c-1.838-1.061-2.964.535-2.964.535l-8.653 9.912-.507 4.598 4.072-1.927 8.588-10.153s1.303-1.903-.535-2.964z"/></symbol><symbol id="pcc-icon-exactword" viewBox="0 0 52 52"><path d="M21.965 26.875h-5.201c.051-2.104.541-3.791 1.472-5.059.931-1.268 2.467-2.257 4.609-2.967l-2.103-4.413c-2.295.812-4.182 1.928-5.66 3.347-1.479 1.421-2.493 3.024-3.041 4.813-.549 1.788-.822 4.229-.822 7.324v7.646h10.747v-10.69zm17.937 0H34.7c.051-2.104.541-3.791 1.473-5.059.93-1.268 2.467-2.257 4.608-2.967l-2.103-4.413c-2.27.812-4.15 1.928-5.641 3.347-1.492 1.421-2.512 3.019-3.06 4.794-.548 1.775-.822 4.223-.822 7.342v7.646h10.747v-10.69z"/></symbol><symbol id="pcc-icon-external-link" viewBox="0 0 52 52"><path d="M34.378 36.328H14.529V15.673h19.849v1.956l3.213 2.203v-7.331H11.5v27h26.091v-7.348l-3.213 2.149v2.026zM40.5 25.967l-13.727-7.42v4.947h-7.798v5.013h7.798v4.947L40.5 25.967z"/></symbol><symbol id="pcc-icon-eye-closed" viewBox="0 0 52 52"><path d="M21.956 25.802l3.816-3.816a3.88 3.88 0 00-3.816 3.816zm4.609 3.876a3.884 3.884 0 003.084-3.084l-3.084 3.084zM26 18.347c.612 0 1.203.083 1.772.224l2.9-2.9c-1.471-.706-3.04-1.15-4.672-1.15-8.284 0-15 11.33-15 11.33s1.541 2.663 4.052 5.44l3.63-3.63A7.827 7.827 0 0118.5 26c0-4.227 3.358-7.653 7.5-7.653zm11.025 2.285l-3.707 3.707c.116.535.182 1.09.182 1.661 0 4.227-3.358 7.653-7.5 7.653a7.346 7.346 0 01-1.772-.224l-2.88 2.88c1.465.719 3.028 1.17 4.652 1.17 8.284 0 15-11.629 15-11.629s-1.509-2.542-3.975-5.218zm-1.833-6.653l2.828 2.828L16.807 38.02l-2.828-2.828z"/></symbol><symbol id="pcc-icon-eye" viewBox="0 0 52 52"><path d="M26 14.52c-8.284 0-15 11.33-15 11.33s6.716 11.63 15 11.63 15-11.63 15-11.63-6.716-11.33-15-11.33zm0 19.133c-4.142 0-7.5-3.426-7.5-7.653 0-4.227 3.358-7.653 7.5-7.653s7.5 3.426 7.5 7.653c0 4.227-3.358 7.653-7.5 7.653zm0-11.464c-2.07 0-3.75 1.711-3.75 3.826s1.68 3.826 3.75 3.826 3.75-1.711 3.75-3.826-1.68-3.826-3.75-3.826z"/></symbol><symbol id="pcc-icon-filter" viewBox="0 0 52 52"><path d="M22.75 40.5h6.5v-9.664L39 14.73s-.092-1.454-.983-2.338c-.891-.883-2.267-.883-2.267-.883h-19.5s-1.314-.152-2.282.807C13 13.276 13 14.73 13 14.73l9.75 16.106V40.5z"/></symbol><symbol id="pcc-icon-firstpage" viewBox="0 0 52 52"><path fill-rule="evenodd" d="M36.771 12.376l-.008-.017a2.23 2.23 0 00-.657-.586l-.003-.003c-.809-.488-1.786-.303-2.45.59L21.667 23.872l-.014.013c-.43.578-.644 1.336-.643 2.094-.001.757.214 1.516.643 2.094l.014.013 11.986 11.512c.859 1.155 2.252 1.155 3.11 0 .478-.643.662-1.502.608-2.342l.075-22.762c0-.834-.262-1.581-.675-2.118zM14.554 40.519h4.616V11.48h-4.616v29.039z" clip-rule="evenodd"/></symbol><symbol id="pcc-icon-fitcontent" viewBox="0 0 52 52"><path d="M36.347 11.291H15.654c-2.452 0-4.44 1.978-4.44 4.416v20.585c0 2.439 1.988 4.416 4.44 4.416h20.693c2.452 0 4.44-1.977 4.44-4.416V15.707c0-2.438-1.988-4.416-4.44-4.416zm.386 22.181a3.214 3.214 0 01-3.223 3.206H18.487a3.215 3.215 0 01-3.224-3.206V18.527a3.215 3.215 0 013.224-3.206H33.51a3.215 3.215 0 013.223 3.206v14.945zM22.671 19.748a1.309 1.309 0 00-.391-.258l-.002-.001a1.306 1.306 0 00-1.458.259l-5.095 5.069-.009.005a1.293 1.293 0 00-.383.921c0 .334.127.667.383.922l.009.006 5.095 5.068c.511.509 1.34.509 1.851 0 .284-.283.394-.661.362-1.03l.045-10.022c0-.367-.156-.696-.402-.933l-.005-.007zm6.367.012v.001a1.28 1.28 0 00-.362 1.032l-.045 10.021c0 .367.156.696.402.932l.005.008c.115.115.25.196.391.258l.002.001a1.306 1.306 0 001.458-.259l5.095-5.069.008-.006c.256-.255.383-.588.383-.921 0-.334-.127-.667-.383-.922l-.008-.005-5.095-5.069a1.315 1.315 0 00-1.851 0z"/></symbol><symbol id="pcc-icon-freehandSign" viewBox="0 0 52 52"><path d="M25.995 35.493c3.052-.492-5-6.89-5-16 0-6.267 5.397-6.77 5.305 2.195-.091 8.965 2.735 1.494 4.375 0 1.641-1.494 10.306-3.069 6.751 4.517-3.555 7.586-3.555 8.505-2.917 9.195.638.69 3.958-4.465 5.834-9.195 1.755-4.425-.367-7.804-3.502-9.006-2.943-1.07-7.625.811-7.625.811s-2.273-6.517-6.376-6.517c-4.102 0-5.834 4.86-5.834 7.356 0 2.496 3.958 17.454 8.987 16.644zM11.01 37.496v3.011h29.994v-3.011H11.01zm1.985-2.003l1-2 1 2h2l-2-3 2-3h-2l-1 2-1-2h-2l2 3-2 3h2z"/></symbol><symbol id="pcc-icon-fullscreen" viewBox="0 0 52 52"><path d="M31.394 24.201l3.719-3.785 3.444 3.429 1.686-12.089-12.186 1.637 3.455 3.439-3.708 3.774 3.59 3.596zm-10.773 3.59l-3.72 3.785-3.444-3.429-1.686 12.089 12.186-1.637-3.455-3.439 3.708-3.774-3.59-3.596zm-3.79-7.288l3.774 3.708 3.596-3.59-3.785-3.719 3.429-3.444-12.089-1.686 1.637 12.186 3.439-3.455zm18.329 11.01l-3.774-3.708-3.596 3.59 3.785 3.719-3.429 3.444 12.089 1.686-1.637-12.186-3.439 3.455z"/></symbol><symbol id="pcc-icon-hamburger-menu" viewBox="0 0 52 52"><path d="M11 36h30v-3.333H11V36zm0-8.333h30v-3.333H11v3.333zM11 16v3.333h30V16H11z"/></symbol><symbol id="pcc-icon-highlight" viewBox="0 0 52 52"><path fill-rule="evenodd" d="M18.772 30.14l-1.007 1.148.038.043a.879.879 0 00-.236.301l-.017.029a1.023 1.023 0 00-.095.416l.001.006a1 1 0 00.239.679l4.502 5.088c.151.205.369.343.622.343a.684.684 0 00.27-.062l.101-.05.097-.075a.885.885 0 00.223-.272l.961-1.096-5.698-6.497zm2.739 8.517l-4.502-5.088-.044-.04-.157-.136-.038-.029a.735.735 0 00-.268-.106l-.115-.031-.01.002-.01-.002-.115.031a.793.793 0 00-.507.311l-4.502 5.088a1.003 1.003 0 00-.238.679l-.001.006c0 .519.369.939.824.939h4.534l.006.002.01-.002.01.002.006-.002h4.534c.455 0 .824-.42.824-.939v-.001l-.001-.006a1.003 1.003 0 00-.239-.679zm19.481-22.302l-.003-.031a3.359 3.359 0 00-.075-.651l-.039-.123a3.742 3.742 0 00-.182-.558l-.149-.276-.217-.401a5.864 5.864 0 00-.512-.672c-1.576-1.797-4.131-2.797-5.707-1l-.053.074-14.41 16.43 5.699 6.497 3.695-4.213 10.746-12.254.03-.028.037-.048.026-.029-.002-.002c.753-.887 1.128-1.8 1.117-2.714zM23.664 40.306h14.557v-1.407l-14.557.001v1.406z" clip-rule="evenodd"/></symbol><symbol id="pcc-icon-image-stamp" viewBox="0 0 52 52"><path d="M37.25 16.708h-22.5v18.584h22.5V16.708zM41 12.991v26.018H11V12.991h30zm-5.625 20.443h-18.75v-3.717l5.625-9.292 7.705 9.292L35.375 26v7.433zm-5.625-12.08c0-1.54 1.259-2.788 2.813-2.788 1.553 0 2.813 1.248 2.813 2.788 0 1.54-1.259 2.788-2.813 2.788-1.553 0-2.813-1.248-2.813-2.788z"/></symbol><symbol id="pcc-icon-imageSign" viewBox="0 0 52 52"><path d="M19.42 27.473l-.606 2.774 2.849.482.545 2.894 2.788-.603 1.636 2.412 2.364-1.628 2.364 1.688 1.576-2.472 2.849.603.545-2.834 2.849-.482-.606-2.894 2.424-1.568-1.636-2.352 1.636-2.352-2.424-1.568.606-2.834-2.849-.543-.545-2.834-2.849.603-1.576-2.412-2.364 1.628-2.424-1.688-1.515 2.533-2.848-.663-.545 2.834-2.849.543.606 2.834-2.424 1.568 1.636 2.352-1.636 2.352 2.424 1.628zm-8.409 10.023v3.011h29.994v-3.011H11.011zm1.985-2.003l1-2 1 2h2l-2-3 2-3h-2l-1 2-1-2h-2l2 3-2 3h2z"/></symbol><symbol id="pcc-icon-imageTools" viewBox="0 0 52 52"><path d="M11 11v7.5h30V11H11zm0 11.25v5.625h30V22.25H11zm0 9.375v3.75h30v-3.75H11zm0 7.5V41h30v-1.875H11z"/></symbol><symbol id="pcc-icon-landscape" viewBox="0 0 52 52"><path d="M11.412 16.459v19.082h29.177V16.459H11.412zm25.114 14.916H15.97V20.55h20.556v10.825z"/></symbol><symbol id="pcc-icon-lastpage" viewBox="0 0 52 52"><path fill-rule="evenodd" d="M30.333 23.914L18.347 12.402c-.859-1.155-2.251-1.155-3.11 0-.478.643-.662 1.502-.608 2.342l-.075 22.762c0 .834.262 1.581.675 2.118l.008.017c.194.261.421.444.657.587l.003.003c.809.488 1.786.303 2.45-.59l11.986-11.512.014-.013c.43-.578.644-1.336.643-2.094.001-.757-.214-1.516-.643-2.094l-.014-.013zm2.496-12.433V40.52h4.616V11.481h-4.616z" clip-rule="evenodd"/></symbol><symbol id="pcc-icon-layer-back" viewBox="0 0 52 52"><path d="M35.728 22.651l4.749-3.235L26 11.465l-14.477 7.95 4.749 3.235-4.749 2.608 4.401 2.998-4.401 2.417L26 40.534l14.477-9.861-4.401-2.417 4.401-2.998-4.749-2.608zm-9.566 9.085l-9.928-6.42 2.228-1.173L26 29.277l7.396-5.038 1.877 1.077-9.11 6.421zm.362-5.843l-9.928-6.42 9.928-5.227 9.11 5.227-9.11 6.421z"/></symbol><symbol id="pcc-icon-layer-backward" viewBox="0 0 52 52"><path d="M40.879 22.016L26 13.845l-14.879 8.171 4.881 3.325-4.881 2.68L26 38.156l14.879-10.135-4.881-2.68 4.881-3.324zm-14.712 6.657l-10.203-6.599 10.203-5.372 9.363 5.372-9.363 6.599z"/></symbol><symbol id="pcc-icon-layer-forward" viewBox="0 0 52 52"><path d="M40.879 22.016L26 13.845l-14.879 8.171 4.881 3.325-4.881 2.68L26 38.156l14.879-10.135-4.881-2.68 4.881-3.325zM35.53 28.08l-9.363 6.599-10.203-6.599 2.289-1.205L26 32.152l7.601-5.178 1.929 1.106z"/></symbol><symbol id="pcc-icon-layer-front" viewBox="0 0 52 52"><path d="M35.762 22.639l4.765-3.246L26 11.415l-14.527 7.978 4.765 3.246-4.765 2.617 4.417 3.008-4.417 2.425L26 40.584l14.527-9.895-4.417-2.425 4.417-3.008-4.765-2.617zM26.163 37.19l-9.962-6.443 1.88-.99L26 35.151l7.764-5.288 1.541.884-9.142 6.443zm0-5.434l-9.962-6.443 2.235-1.177L26 29.288l7.422-5.055 1.883 1.08-9.142 6.443z"/></symbol><symbol id="pcc-icon-link" viewBox="0 0 52 52"><path d="M38.843 13.849c-3.622-4.519-8.989-1.128-8.989-1.128s-3.68 3.455-3.68 3.596c1.062-.141 3.495 1.052 3.495 1.052l1.969-1.956s2.05-1.323 3.938 0c2.299 1.611.985 4.891.985 4.891l-6.892 6.847s-1.744 2.379-3.938 1.956c-2.194-.423-2.954-1.956-2.954-1.956l-2.265 2.21c4.388 5.852 9.767 1.692 9.767 1.692l4.53-4.513 4.176-4.09s3.503-4.054-.142-8.602zM22.5 34.5l-2 2s-2.082 1.352-4 0c-2.335-1.647-1-5-1-5l7-7s1.772-2.433 4-2c2.228.432 3 2 3 2l2.3-2.26c-4.457-5.983-9.92-1.73-9.92-1.73l-4.6 4.613-4.241 4.181s-3.558 4.145.144 8.794c3.678 4.619 9.129 1.153 9.129 1.153s3.738-3.532 3.738-3.676c-1.078.144-3.549-1.076-3.549-1.076z"/></symbol><symbol id="pcc-icon-list" viewBox="0 0 52 52"><path d="M13.881 32.755a2.927 2.927 0 00-2.935 2.92c0 1.612 1.314 2.92 2.935 2.92s2.935-1.308 2.935-2.92a2.927 2.927 0 00-2.935-2.92zm0-19.349a2.928 2.928 0 00-2.935 2.92c0 1.612 1.314 2.92 2.935 2.92s2.935-1.307 2.935-2.92a2.928 2.928 0 00-2.935-2.92zm0 9.508a2.928 2.928 0 00-2.935 2.92c0 1.612 1.314 2.92 2.935 2.92s2.935-1.308 2.935-2.92a2.928 2.928 0 00-2.935-2.92zm6.709-7.946v2.716h20.463v-2.716H20.59zm0 21.732h20.463v-2.716H20.59V36.7zm0-9.508h20.463v-2.717H20.59v2.717z"/></symbol><symbol id="pcc-icon-load" viewBox="0 0 52 52"><path d="M40.647 25.631c.058.001-1.298 6.322-1.972 9.013v.255c0 .824-.671 1.492-1.5 1.492H13.468l4.614-12.255s.733-1.051 1.317-1.051l19.276-.005v.049c.586.004 1.4.025 1.799.102.684.13.172 2.4.172 2.4zm-23.734-3.105l-5.358 13.362a1.476 1.476 0 01-.385-.99V19.705c0-.824.671-1.491 1.5-1.491h1.04c.434-.979 1.266-2.522 2.203-2.556.569-.02 1.952-.046 1.952-.046l2.245-.003s1.278.029 1.733.044c1.127.036 2.037 1.642 2.467 2.561h12.867c.828 0 1.5.668 1.5 1.491v1.507H18.533c-.73 0-1.618 1.313-1.618 1.313z"/></symbol><symbol id="pcc-icon-loader" viewBox="0 0 52 52"><circle cx="26" cy="13.813" r="2.813"/><circle cx="26" cy="38.188" r="2.813" opacity=".4"/><circle cx="13.813" cy="26" r="2.813" opacity=".1"/><circle cx="38.188" cy="26" r="2.813" opacity=".7"/><circle cx="34.618" cy="34.618" r="2.813" opacity=".55"/><circle cx="17.382" cy="34.618" r="2.813" opacity=".25"/><circle cx="34.618" cy="17.382" r="2.813" opacity=".85"/></symbol><symbol id="pcc-icon-magnifiertool" viewBox="0 0 52 52"><path d="M37.047 11.146H21.058a3.42 3.42 0 00-3.43 3.412v15.905c0 .183.026.359.054.534l-5.383 5.354a2.627 2.627 0 000 3.729 2.66 2.66 0 003.749 0l6.238-6.205h14.761a3.42 3.42 0 003.43-3.412V14.558a3.422 3.422 0 00-3.431-3.412zm-1.119 16.012c0 1.165-.95 2.11-2.121 2.11h-9.888a2.116 2.116 0 01-2.122-2.11v-9.836c0-1.165.95-2.11 2.122-2.11h9.888c1.172 0 2.121.945 2.121 2.11v9.836zm-3.16-6.726h-2.485V17.96c0-.896-.73-1.622-1.631-1.622s-1.631.726-1.631 1.622v2.472h-2.498c-.901 0-1.631.726-1.631 1.622 0 .896.73 1.623 1.631 1.623h2.498v2.485c0 .896.73 1.623 1.631 1.623s1.631-.727 1.631-1.623v-2.485h2.485c.901 0 1.631-.727 1.631-1.623s-.73-1.622-1.631-1.622z"/></symbol><symbol id="pcc-icon-matchcase" viewBox="0 0 52 52"><path d="M17.668 17.531l-6.526 16.666h3.588l1.383-3.785h6.697l1.463 3.785h3.68l-6.708-16.666h-3.577zm-.514 10.072l2.263-6.184 2.309 6.184h-4.571zm23.127 4.974c-.103-.504-.154-1.287-.154-2.348l.034-3.728c0-1.387-.143-2.34-.429-2.859-.286-.519-.779-.948-1.48-1.285-.701-.338-1.768-.506-3.2-.506-1.577 0-2.766.28-3.566.841-.8.561-1.364 1.426-1.691 2.592l2.914.523c.198-.561.457-.953.777-1.176.32-.225.766-.336 1.337-.336.846 0 1.421.131 1.726.392.305.261.457.699.457 1.313v.319c-.579.243-1.619.504-3.12.784-1.113.212-1.964.461-2.554.745a3.197 3.197 0 00-1.377 1.227c-.328.534-.491 1.144-.491 1.825 0 1.03.36 1.883 1.08 2.558.72.674 1.704 1.011 2.954 1.011.709 0 1.375-.132 2-.398s1.212-.663 1.76-1.193l.114.375c.122.417.225.731.309.944h3.177a6.83 6.83 0 01-.577-1.62zm-3.274-3.541c0 .765-.042 1.284-.126 1.557-.122.417-.377.769-.766 1.058-.526.379-1.078.568-1.657.568-.518 0-.945-.162-1.28-.488a1.565 1.565 0 01-.503-1.16c0-.455.21-.83.629-1.125.274-.182.857-.368 1.748-.557.891-.19 1.543-.352 1.954-.489v.637z"/></symbol><symbol id="pcc-icon-nextpage" viewBox="0 0 52 52"><path d="M33.575 23.913l-.014-.013-11.986-11.512c-.859-1.155-2.251-1.155-3.11 0-.478.643-.662 1.502-.608 2.342l-.075 22.762c0 .834.262 1.581.675 2.118l.008.016c.194.261.421.444.657.587l.003.003c.809.488 1.786.303 2.45-.59l11.986-11.512.014-.013c.43-.578.644-1.336.644-2.094 0-.757-.214-1.516-.644-2.094z"/></symbol><symbol id="pcc-icon-opacity" viewBox="0 0 52 52"><path d="M29.245 29.676H36.7v-7.455h-7.455v7.455zm.01-14.922H21.8v7.455h7.455v-7.455zm-18.163-3.329v29.15h29.815v-29.15H11.092zm26.146 26.159H13.89V14.433h23.348v23.151zM21.791 22.221h-7.455v7.455h7.455v-7.455zm7.463 7.467h-7.455v7.455h7.455v-7.455z"/></symbol><symbol id="pcc-icon-page" viewBox="0 0 52 52"><path d="M37 40.5H15v-21l8-8h14v29zm-12-28l-9 9h9v-9z"/></symbol><symbol id="pcc-icon-pantool" viewBox="0 0 52 52"><path fill-rule="evenodd" d="M37.029 37.781c-1.326 1.983-3.208 2.75-4.628 3.041l-9.52-.149c-.963-.015-1.756-.559-1.988-1.285l-6.664-9.311c-.874-.619-.971-1.695-.216-2.403s2.075-.781 2.949-.161l3.973 3.942.055-3.523c.004-.241.07-.468.184-.674V15.216a1.82 1.82 0 011.825-1.815h.003a1.82 1.82 0 011.825 1.815v11.071l.913.014V12.977c0-.995.811-1.801 1.811-1.801 1 0 1.811.806 1.811 1.801v13.38l.945.016V15.216a1.82 1.82 0 011.825-1.815h.003a1.82 1.82 0 011.825 1.815V26.43l.882.014v-8.44a1.82 1.82 0 011.825-1.815h.003a1.82 1.82 0 011.825 1.815v16.345c-.268 1.119-.72 2.315-1.466 3.431z" clip-rule="evenodd"/></symbol><symbol id="pcc-icon-paperclip" viewBox="0 0 52 52"><path d="M31.46 17.83h2v15.64a7.31 7.31 0 01-2.17 5.33A7.16 7.16 0 0126 41a7.52 7.52 0 01-7.53-7.53v-17A5.56 5.56 0 0124 11a5.17 5.17 0 013.83 1.63 5.33 5.33 0 011.6 3.86v14.3A3.38 3.38 0 0126 34.17a3.37 3.37 0 01-2.43-1 3.21 3.21 0 01-1-2.39v-13h2v13a1.25 1.25 0 00.41 1 1.41 1.41 0 001 .38 1.31 1.31 0 001.34-1.34V16.49a3.37 3.37 0 00-1-2.43A3.21 3.21 0 0024 13a3.49 3.49 0 00-3.45 3.45v17A5.56 5.56 0 0026 39a5.17 5.17 0 003.83-1.63 5.33 5.33 0 001.6-3.86V17.83z" fill="#7d7f85"/></symbol><symbol id="pcc-icon-pencil-add" viewBox="0 0 52 52"><path d="M20.51 36.43a1.49 1.49 0 01-1-.41l-2.55-2.41a1.51 1.51 0 01-.06-2.12L34.34 13a1.51 1.51 0 012.12-.06l2.54 2.4a1.51 1.51 0 01.06 2.12L21.6 36a1.49 1.49 0 01-1.09.43z" fill="#7d7f85"/><path d="M35.43 13a1 1 0 01.69.27l2.55 2.41a1 1 0 010 1.41L21.24 35.61a1 1 0 01-1.41 0l-2.55-2.41a1 1 0 010-1.41L34.7 13.34a1 1 0 01.73-.31m0-1a2 2 0 00-1.46.62l-17.46 18.5a2 2 0 00.08 2.85l2.55 2.41A2 2 0 0022 36.3l17.46-18.5a2 2 0 00-.11-2.8l-2.55-2.43a2 2 0 00-1.37-.57z" fill="#7d7f85"/><path d="M14.3 39.46a.5.5 0 01-.48-.64L15.87 32a.5.5 0 01.35-.34h.13a.5.5 0 01.34.14l4.62 4.36a.5.5 0 01-.17.83l-6.67 2.44a.5.5 0 01-.17.03z" fill="#7d7f85"/><path d="M16.35 32.16L21 36.52 14.3 39l2.05-6.8m0-1a1 1 0 00-1 .71l-2.05 6.8a1 1 0 001.3 1.23l6.67-2.44a1 1 0 00.34-1.67L17 31.43a1 1 0 00-.69-.27z" fill="#7d7f85"/><path fill="none" stroke="#fff" stroke-linecap="round" stroke-linejoin="round" d="M32.16 14.15l8.82 8.32M15.53 32.18c.8.75 1.26 2 .89 2.42M21 37.34c-.8-.75-2.09-1.14-2.47-.75M18.34 35.1a1.2 1.2 0 01.18 1.49M18.34 35.1c-.6-.57-1.61-.82-1.92-.49"/><path d="M23 18a.92.92 0 110 1.83h-9.62a.92.92 0 110-1.83z" fill="#7d7f85"/><path d="M19.06 23.68a.92.92 0 11-1.83 0V14a.92.92 0 111.83 0z" fill="#7d7f85"/></symbol><symbol id="pcc-icon-pencil-subtract" viewBox="0 0 52 52"><path d="M20.51 36.43a1.49 1.49 0 01-1-.41l-2.55-2.41a1.51 1.51 0 01-.06-2.12L34.34 13a1.51 1.51 0 012.12-.06l2.54 2.4a1.51 1.51 0 01.06 2.12L21.6 36a1.49 1.49 0 01-1.09.43z" fill="#7d7f85"/><path d="M35.43 13a1 1 0 01.69.27l2.55 2.41a1 1 0 010 1.41L21.24 35.61a1 1 0 01-1.41 0l-2.55-2.41a1 1 0 010-1.41L34.7 13.34a1 1 0 01.73-.31m0-1a2 2 0 00-1.46.62l-17.46 18.5a2 2 0 00.08 2.85l2.55 2.41A2 2 0 0022 36.3l17.46-18.5a2 2 0 00-.11-2.8l-2.55-2.43a2 2 0 00-1.37-.57z" fill="#7d7f85"/><path d="M14.3 39.46a.5.5 0 01-.48-.64L15.87 32a.5.5 0 01.35-.34h.13a.5.5 0 01.34.14l4.62 4.36a.5.5 0 01-.17.83l-6.67 2.44a.5.5 0 01-.17.03z" fill="#7d7f85"/><path d="M16.35 32.16L21 36.52 14.3 39l2.05-6.8m0-1a1 1 0 00-1 .71l-2.05 6.8a1 1 0 001.3 1.23l6.67-2.44a1 1 0 00.34-1.67L17 31.43a1 1 0 00-.69-.27z" fill="#7d7f85"/><path d="M15.53 32.18c.8.75 1.26 2 .89 2.42M21 37.34c-.8-.75-2.09-1.14-2.47-.75M18.34 35.1a1.2 1.2 0 01.18 1.49M18.34 35.1c-.6-.57-1.61-.82-1.92-.49" fill="none" stroke="#fff" stroke-linecap="round" stroke-linejoin="round"/><path d="M23 18a.92.92 0 110 1.83h-9.62a.92.92 0 110-1.83z" fill="#7d7f85"/><path fill="none" stroke="#fff" stroke-linecap="round" stroke-linejoin="round" d="M32.16 14.15l8.82 8.32"/></symbol><symbol id="pcc-icon-pencil" viewBox="0 0 52 52"><path d="M20.51 36.43a1.49 1.49 0 01-1-.41l-2.55-2.41a1.51 1.51 0 01-.06-2.12L34.34 13a1.51 1.51 0 012.12-.06l2.54 2.4a1.51 1.51 0 01.06 2.12L21.6 36a1.49 1.49 0 01-1.09.43z" fill="#7d7f85"/><path d="M35.43 13a1 1 0 01.69.27l2.55 2.41a1 1 0 010 1.41L21.24 35.61a1 1 0 01-1.41 0l-2.55-2.41a1 1 0 010-1.41L34.7 13.34a1 1 0 01.73-.31m0-1a2 2 0 00-1.46.62l-17.46 18.5a2 2 0 00.08 2.85l2.55 2.41A2 2 0 0022 36.3l17.46-18.5a2 2 0 00-.11-2.8l-2.55-2.43a2 2 0 00-1.37-.57z" fill="#7d7f85"/><path d="M14.3 39.46a.5.5 0 01-.48-.64L15.87 32a.5.5 0 01.35-.34h.13a.5.5 0 01.34.14l4.62 4.36a.5.5 0 01-.17.83l-6.67 2.44a.5.5 0 01-.17.03z" fill="#7d7f85"/><path d="M16.35 32.16L21 36.52 14.3 39l2.05-6.8m0-1a1 1 0 00-1 .71l-2.05 6.8a1 1 0 001.3 1.23l6.67-2.44a1 1 0 00.34-1.67L17 31.43a1 1 0 00-.69-.27z" fill="#7d7f85"/><path fill="none" stroke="#fff" stroke-linecap="round" stroke-linejoin="round" d="M32.16 14.15l8.82 8.32M15.53 32.18c.8.75 1.26 2 .89 2.42M21 37.34c-.8-.75-2.09-1.14-2.47-.75M18.34 35.1a1.2 1.2 0 01.18 1.49M18.34 35.1c-.6-.57-1.61-.82-1.92-.49"/></symbol><symbol id="pcc-icon-place" viewBox="0 0 52 52"><path d="M16.472 15.447h3.434v-3.83h-7.54v7.006h4.105v-3.176zm13.128-3.83h-6.316v3.83H29.6v-3.83zm3.378 0v3.83h3.318v3.176h3.643v-7.006h-6.961zM19.907 25.188h-3.434V22h-4.105v6.914h7.54v-3.726zm16.389 0h-3.318v3.726h6.961V22h-3.643v3.188zm-2.956 7.967a1.49 1.49 0 00-.296-.446l-.008-.005a1.485 1.485 0 00-1.07-.459l-11.495.051a1.471 1.471 0 00-1.183.413 1.494 1.494 0 000 2.112l5.814 5.814.006.01c.292.292.675.438 1.057.437.383.001.766-.145 1.058-.437l.006-.01 5.814-5.814a1.484 1.484 0 00.298-1.663l-.002-.002zm-3.74-7.967h-6.316v3.726H29.6v-3.726z"/></symbol><symbol id="pcc-icon-portrait" viewBox="0 0 52 52"><path d="M16.19 11v30h19.621V11H16.19zm15.337 25.314H20.396V15.178h11.131v21.136z"/></symbol><symbol id="pcc-icon-prevpage" viewBox="0 0 52 52"><path d="M18.425 28.087l.014.013 11.986 11.512c.859 1.155 2.251 1.155 3.11 0 .478-.643.662-1.502.608-2.342l.075-22.762c0-.834-.262-1.581-.675-2.119l-.008-.016a2.25 2.25 0 00-.657-.587l-.003-.003c-.809-.488-1.786-.303-2.45.59L18.439 23.885l-.014.013c-.43.578-.644 1.336-.643 2.094-.001.757.214 1.516.643 2.094z"/></symbol><symbol id="pcc-icon-print" viewBox="0 0 52 52"><path d="M36.531 34.047h-.759l.005-.023v-5.213a.801.801 0 00-.803-.799H16.82a.8.8 0 00-.803.799v5.213l.005.023h-.875c-2.064 0-3.737-1.664-3.737-3.717v-7.927c0-2.053 1.673-3.717 3.737-3.717h.87v2.124a.8.8 0 00.803.799h18.154a.8.8 0 00.803-.799v-2.124h.754c2.064 0 3.737 1.664 3.737 3.717v7.927c0 2.053-1.673 3.717-3.737 3.717zm-18.475-19.86h16.003v5.502H18.056v-5.502zM34.059 39.37H18.056v-9.219h16.003v9.219z"/></symbol><symbol id="pcc-icon-proximity" viewBox="0 0 52 52"><path d="M41 26c0-.563-.037-1.118-.098-1.667h-1.685a13.318 13.318 0 00-11.55-11.55v-1.685C27.117 11.038 26.563 11 26 11s-1.118.037-1.667.098v1.685a13.318 13.318 0 00-11.55 11.55h-1.685c-.06.55-.098 1.104-.098 1.667s.037 1.118.098 1.667h1.685a13.318 13.318 0 0011.55 11.55v1.686c.55.06 1.104.097 1.667.097s1.118-.037 1.667-.098v-1.685c6.026-.754 10.798-5.522 11.55-11.55h1.686c.06-.547.097-1.102.097-1.667zm-13.333 9.85v-1.517a1.667 1.667 0 00-3.334 0v1.517a9.986 9.986 0 01-8.18-8.182h1.514a1.668 1.668 0 000-3.335H16.15a9.998 9.998 0 018.183-8.183v1.517a1.667 1.667 0 003.334 0V16.15a9.989 9.989 0 018.183 8.183h-1.517a1.667 1.667 0 000 3.334h1.517a9.99 9.99 0 01-8.183 8.183z"/></symbol><symbol id="pcc-icon-pushpin" viewBox="0 0 52 52"><path d="M33.76 27.356c-1.16-1.332-2.53-1.053-4.11-2.52-.783-.729-.709-5.26-.709-5.26s-.058-3.93.747-4.735c.556-.555 1.533-.699 2.102-1.258a1.388 1.388 0 00.31-.452c.008-.018.018-.032.025-.05.05-.13.077-.285.091-.45.004-.042.024-.078.024-.12 0-.008-.004-.015-.005-.022.001-.012.005-.02.005-.032 0-.028-.021-.043-.024-.068A1.498 1.498 0 0030.73 11h-9.46c-.791 0-1.42.614-1.486 1.389-.003.025-.024.04-.024.068 0 .011.003.02.005.031-.001.008-.005.015-.005.022 0 .043.02.079.024.12.014.166.041.32.091.45.006.019.017.033.026.05a1.374 1.374 0 00.309.453c.569.56 1.546.703 2.102 1.258.805.805.746 4.734.746 4.734s.075 4.532-.709 5.26c-1.58 1.468-2.95 1.189-4.108 2.52-.82.944-.67 2.626-.67 2.626h7.779v6.855L25.93 41h.139l.582-4.164v-6.855h7.778s.15-1.682-.67-2.625z"/></symbol><symbol id="pcc-icon-range" viewBox="0 0 52 52"><path d="M14.796 39.512h5.152l1.801-6.952h5.061l-1.755 6.952h5.083l1.801-6.952h6.565v-3.922h-5.54l1.368-5.259h4.172V19.44h-3.146l1.824-6.952h-5.289l-1.755 6.952H25.1l1.801-6.952h-5.106l-1.801 6.952h-6.497v3.939h5.471L17.6 28.638h-4.103v3.922h3.1l-1.801 6.952zM29.135 23.38l-1.322 5.259h-5.061l1.345-5.259h5.038z"/></symbol><symbol id="pcc-icon-rectanglezoomtool" viewBox="0 0 52 52"><path d="M36.539 33.438a3.16 3.16 0 01-3.169 3.152h-.57l.001 3.962h3.358c2.411 0 4.365-1.943 4.365-4.341v-3.4l-3.985.001v.626zm-.38-21.806H32.8l.001 3.962h.569a3.16 3.16 0 013.169 3.152v.444l3.985-.001v-3.215c0-2.398-1.954-4.342-4.365-4.342zm.38 17.167l3.985-.001v-5.596l-3.985.001v5.596zM15.432 18.746a3.161 3.161 0 013.169-3.152h.579l-.001-3.962h-3.363c-2.411 0-4.365 1.944-4.365 4.342v3.216l3.981-.001v-.443zm13.357-3.152l-.001-3.962h-5.596l.001 3.962h5.596zm4.827 10.199c0-1.198-.977-2.17-2.182-2.17h-3.325v-3.307c0-1.199-.977-2.17-2.182-2.17s-2.182.971-2.182 2.17v3.307h-3.342c-1.205 0-2.182.972-2.182 2.17s.977 2.171 2.182 2.171h3.342v3.324c0 1.198.977 2.171 2.182 2.171s2.182-.972 2.182-2.171v-3.324h3.325a2.177 2.177 0 002.182-2.171zM23.192 36.59l.001 3.962h5.596l-.001-3.962h-5.596zm-7.759-13.388l-3.981.001v5.596l3.981-.001v-5.596zm3.169 13.388a3.16 3.16 0 01-3.169-3.152v-.627l-3.981.001v3.399c0 2.398 1.954 4.341 4.365 4.341h3.364l-.001-3.962h-.577z"/></symbol><symbol id="pcc-icon-redact-textselection" viewBox="0 0 52 52"><path d="M25.731 34.585c.499-.575.27-.332 0-1.141-2.905-8.698 4.776-16.911 11.765-13.08.583.319.875-.192 1.248-.618l.158-.191c.127-.082.259-.188.402-.351 1.576-1.797 1.768-4.044.192-5.841-1.576-1.797-4.323-2.463-5.899-.666l-.083.108-14.38 16.396 5.665 6.459.931-1.076zm-4.73 4.129l-4.502-5.088-.044-.04-.107-.098-.155-.119-.201-.054-.115-.031-.01.002-.01-.002-.115.031-.201.054-.155.119-.108.098-.044.04-4.502 5.088a1.003 1.003 0 00-.238.679l-.001.006c0 .519.369.939.824.939h4.534l.006.002.01-.002.01.002.006-.002h4.534c.455 0 .823-.42.823-.939l-.001-.006a.998.998 0 00-.239-.679zm-2.739-8.517l-1.007 1.148.038.043a.962.962 0 00-.348.746l.001.006a1 1 0 00.239.679l4.502 5.088c.151.205.369.343.622.343.306 0 .563-.199.705-.483.096-.119.347-.425.923-1.1l-5.674-6.47zm15.742-8.827c-4.143 0-7.501 3.354-7.501 7.492 0 4.137 3.358 7.491 7.501 7.491 4.143 0 7.501-3.354 7.501-7.491 0-4.138-3.358-7.492-7.501-7.492zm-5.395 7.527c0-3 2.436-5.433 5.441-5.433 1.231 0 2.353.423 3.264 1.111l-7.593 7.582a5.38 5.38 0 01-1.112-3.261zm5.441 5.434a5.404 5.404 0 01-2.9-.851l7.489-7.478a5.38 5.38 0 01.852 2.895 5.438 5.438 0 01-5.441 5.434zm-10.896 4.626v1.406h14.557v-1.407l-14.557.001z"/></symbol><symbol id="pcc-icon-redact-transparent" viewBox="0 0 52 52"><path d="M10.99 11.095v29.81h30.02v-29.81H10.99zm4.223 4.285h10.123l-10.123 9.042V15.38zm0 16.626L31.3 15.38h4.775v4.864L20.316 35.921h-5.102v-3.915zm12.631 3.915l8.23-7.915v7.915h-8.23z"/></symbol><symbol id="pcc-icon-redact" viewBox="0 0 52 52"><path d="M30.181 40.789c-4.659 0-8.435-3.757-8.435-8.391s3.777-8.39 8.435-8.39c4.659 0 8.435 3.756 8.435 8.39s-3.777 8.391-8.435 8.391zm-6.067-8.35c0 1.376.465 2.642 1.24 3.662l8.56-8.515a6.104 6.104 0 00-3.682-1.234c-3.379 0-6.118 2.725-6.118 6.087zm11.285-3.251l-8.434 8.39a6.108 6.108 0 003.267.947c3.379 0 6.118-2.725 6.118-6.086 0-1.197-.352-2.31-.952-3.251zm-15.512 3.249c0 3.155 1.432 5.974 3.681 7.861H13.383V19.331l8.162-8.12h14.547v12.772a10.313 10.313 0 00-5.872-1.825c-5.707 0-10.334 4.603-10.334 10.28zm3.267-20.254l-8.804 8.758h8.804v-8.758z"/></symbol><symbol id="pcc-icon-rotate-doc-cc" viewBox="0 0 52 52"><path d="M33.892 37.201l-.005-.01-1.991-7.77c-.2-.779-.99-1.25-1.765-1.051-.431.11-.75.412-.929.786l-1.676 2.819c-3.808-2.408-5.058-7.421-2.759-11.328a8.28 8.28 0 016.742-4.077L31.223 11a13.8 13.8 0 00-11.234 6.801c-3.853 6.547-1.743 14.979 4.691 18.962l-1.193 2.006a1.448 1.448 0 00-.144 1.125v.009c.045.176.128.33.227.471l.001.002c.338.48.938.732 1.538.579l7.729-1.981h.011c.389-.1.699-.348.887-.669.189-.321.257-.715.156-1.104z"/></symbol><symbol id="pcc-icon-rotate-doc-cw" viewBox="0 0 52 52"><path d="M32.012 17.8A13.799 13.799 0 0020.778 11l-.286 5.57a8.277 8.277 0 016.742 4.077c2.299 3.906 1.049 8.92-2.759 11.328l-1.676-2.819a1.418 1.418 0 00-.929-.786 1.454 1.454 0 00-1.765 1.051l-1.991 7.77-.005.01a1.456 1.456 0 001.043 1.773h.011l7.729 1.981c.599.154 1.2-.099 1.538-.579l.001-.002a1.48 1.48 0 00.227-.471v-.009a1.452 1.452 0 00-.144-1.125l-1.193-2.006c6.434-3.984 8.544-12.415 4.691-18.962z"/></symbol><symbol id="pcc-icon-rotate-page-cc" viewBox="0 0 52 52"><path d="M13.715 10.574v29.15H36.53v-29.15H13.715zm20.016 26.159H17.299V13.582h16.432v23.151zm-8.743-4.12l-.819 1.378a.996.996 0 00-.099.773v.006a.979.979 0 00.156.323l.001.001a.991.991 0 001.056.398l5.31-1.361h.008a.997.997 0 00.717-1.218l-.003-.007-1.368-5.338a.998.998 0 00-1.213-.722.976.976 0 00-.638.54l-1.151 1.936c-2.616-1.654-3.474-5.098-1.895-7.782a5.685 5.685 0 014.631-2.8l-.197-3.826a9.481 9.481 0 00-7.718 4.672c-2.647 4.497-1.197 10.29 3.222 13.026z"/></symbol><symbol id="pcc-icon-rotate-page-cw" viewBox="0 0 52 52"><path d="M14.592 11.425v29.15h22.815v-29.15H14.592zm19.146 26.159H17.39V14.433h16.348v23.151zm-13.216-2.601h.008l5.31 1.361a.99.99 0 001.056-.398l.001-.001a1.04 1.04 0 00.156-.323v-.006a1 1 0 00-.099-.773l-.819-1.378c4.42-2.737 5.869-8.529 3.223-13.026a9.48 9.48 0 00-7.718-4.672l-.197 3.826a5.685 5.685 0 014.631 2.8c1.579 2.683.721 6.127-1.895 7.782l-1.151-1.936a.976.976 0 00-.638-.54 1 1 0 00-1.213.722l-1.368 5.338-.004.007a1.001 1.001 0 00.716 1.218z"/></symbol><symbol id="pcc-icon-save" viewBox="0 0 52 52"><path d="M40.676 22.933v13.785c0 1.322.198 2.958-.552 3.546-.874.686-3.506.513-5.33.462V30.16a1.71 1.71 0 00-1.715-1.706H18.024a1.71 1.71 0 00-1.715 1.706v10.554h-3.15c-.445-.12-.926-.457-1.155-.799-.316-.473-.251-1.309-.251-2.098V14.79c0-.576-.079-1.325.101-1.748.159-.376.544-.77.904-.949l.452-.151h2.528v9.691a1.71 1.71 0 001.715 1.706h10.864a1.71 1.71 0 001.715-1.706v-9.692c.773-.004 1.57-.042 2.16.151 1.515.496 2.362 1.55 3.364 2.547l2.511 2.498c1.084 1.079 2.088 1.927 2.561 3.646.162.59.05 1.469.05 2.148zm-14.171-1.506h-3.036a.927.927 0 01-.93-.925v-5.863c0-.511.416-.925.93-.925h3.036c.514 0 .93.414.93.925v5.863a.928.928 0 01-.93.925zm-6.032 9.295h10.683c.672 0 1.217.541 1.217 1.21V39.6c0 .668-.545 1.21-1.217 1.21H20.473a1.214 1.214 0 01-1.217-1.21v-7.668c0-.669.545-1.211 1.217-1.211z"/></symbol><symbol id="pcc-icon-search-quick-actions" viewBox="0 0 52 52"><path d="M18.5 11v16.5H23V41l10.5-18h-6l6-12h-15z"/></symbol><symbol id="pcc-icon-search" viewBox="0 0 52 52"><path fill-rule="evenodd" d="M40.238 36.198a2.638 2.638 0 010 3.745 2.67 2.67 0 01-3.765 0l-7.75-7.709-.053-.065c-4.434 2.892-10.444 2.4-14.341-1.475a11.33 11.33 0 010-16.082c4.464-4.441 11.702-4.441 16.166 0 3.741 3.722 4.335 9.376 1.805 13.725l.188.152 7.75 7.709zM26.621 18.417a5.975 5.975 0 00-8.416 0 5.898 5.898 0 000 8.372 5.973 5.973 0 008.416 0 5.898 5.898 0 000-8.372z" clip-rule="evenodd"/></symbol><symbol id="pcc-icon-text-bold" viewBox="0 0 52 52"><path d="M13.649 40.667h10.038c3.795-.026 6.189-.093 7.181-.2 1.582-.174 2.913-.637 3.993-1.39 1.079-.754 1.931-1.762 2.555-3.021.624-1.261.935-2.558.935-3.892 0-1.694-.483-3.168-1.448-4.422-.966-1.254-2.347-2.142-4.144-2.663a6.9 6.9 0 003.027-2.58 6.808 6.808 0 001.116-3.781c0-1.267-.302-2.412-.905-3.431-.603-1.021-1.358-1.837-2.263-2.451-.905-.614-1.931-1.018-3.078-1.211-1.147-.194-2.887-.29-5.22-.29H13.648v29.333zm9.374-24.452c2.803 0 4.499.034 5.089.101.992.12 1.74.464 2.243 1.031.503.567.754 1.304.754 2.21 0 .947-.292 1.71-.875 2.291-.583.58-1.385.931-2.404 1.05-.563.067-2.005.101-4.325.101h-3.902v-6.784h3.419zm1.388 11.666c2.709 0 4.469.14 5.28.42.811.281 1.431.727 1.861 1.341.429.613.644 1.361.644 2.24 0 1.041-.279 1.872-.835 2.492-.556.619-1.277 1.01-2.162 1.17-.577.121-1.938.18-4.083.18h-5.511V27.88h4.807z"/></symbol><symbol id="pcc-icon-text-center" viewBox="0 0 52 52"><path d="M11.339 39.195h29.322v-4.756H11.339v4.756zm0-26.39v4.756h29.322v-4.756H11.339zm4.971 10.949v4.756H35.7v-4.756H16.31z"/></symbol><symbol id="pcc-icon-text-italic" viewBox="0 0 52 52"><path d="M28.753 39.736a3.462 3.462 0 01-1.86-.514c-.412-.257-.657-.564-.737-.921-.103-.471-.024-1.443.235-2.914l3.31-18.771c.307-1.743.68-2.843 1.118-3.3.666-.7 1.592-1.05 2.778-1.05h1.05l.14-.793h-12.45l-.14.793h1.028c.686 0 1.313.172 1.881.514.397.257.636.565.716.921.102.471.024 1.443-.235 2.914l-3.31 18.771c-.307 1.743-.673 2.843-1.096 3.3-.666.7-1.599 1.05-2.799 1.05h-1.028l-.14.793h12.45l.14-.793h-1.05z"/></symbol><symbol id="pcc-icon-text-left" viewBox="0 0 52 52"><path d="M11.339 39.195h29.322v-4.756H11.339v4.756zm0-26.39v4.756h29.322v-4.756H11.339zm.354 10.949v4.756h19.39v-4.756h-19.39z"/></symbol><symbol id="pcc-icon-text-right" viewBox="0 0 52 52"><path d="M11.339 39.195h29.322v-4.756H11.339v4.756zm0-26.39v4.756h29.322v-4.756H11.339zm9.838 10.949v4.756h19.39v-4.756h-19.39z"/></symbol><symbol id="pcc-icon-text-strikeout" viewBox="0 0 52 52"><path d="M16.862 23.005h7.221c-1.94-.524-3.196-1.039-3.751-1.544-.728-.651-1.091-1.481-1.091-2.489 0-1.161.514-2.154 1.542-2.978 1.028-.823 2.665-1.235 4.912-1.235 2.157 0 3.788.453 4.893 1.36 1.104.907 1.752 2.247 1.944 4.021l3.562-.268c-.064-1.647-.524-3.121-1.379-4.423s-2.078-2.288-3.667-2.958c-1.589-.67-3.425-1.005-5.505-1.005-1.889 0-3.607.319-5.151.957-1.545.638-2.719 1.573-3.523 2.805-.804 1.232-1.206 2.556-1.206 3.974 0 1.29.329 2.454.986 3.495l.216.289zm13.87 5.737c.826.39 1.451.843 1.857 1.365.51.658.766 1.427.766 2.307 0 .868-.265 1.669-.795 2.403s-1.337 1.312-2.422 1.733c-1.085.421-2.336.632-3.753.632-1.596 0-3.032-.278-4.309-.833-1.277-.555-2.218-1.283-2.825-2.183-.606-.9-.993-2.052-1.159-3.456l-3.504.306c.051 1.877.565 3.559 1.542 5.046.977 1.487 2.323 2.601 4.04 3.341 1.717.74 3.846 1.111 6.386 1.111 2.004 0 3.807-.367 5.41-1.101 1.602-.734 2.831-1.762 3.686-3.083.855-1.321 1.283-2.729 1.283-4.222 0-1.244-.281-2.362-.813-3.366h-5.391zm-17.651-4.57v2.855h25.838v-2.855H13.081z"/></symbol><symbol id="pcc-icon-text-underline" viewBox="0 0 52 52"><path d="M16.741 40.287h18.477v-2.855H16.74v2.855zm13.851-28.573v12.789c0 1.829-.068 3.138-.205 3.926-.137.788-.541 1.453-1.214 1.995-.673.541-1.671.812-2.996.812-1.304 0-2.331-.286-3.083-.859-.752-.573-1.227-1.333-1.427-2.279-.116-.589-.173-1.877-.173-3.863V11.714h-4.668v12.331c0 2.586.152 4.541.457 5.866.21.894.647 1.748 1.309 2.562.662.815 1.564 1.477 2.704 1.987 1.141.51 2.815.765 5.022.765 1.829 0 3.312-.234 4.447-.702 1.135-.468 2.042-1.096 2.72-1.884.678-.788 1.143-1.756 1.395-2.902.252-1.146.379-3.106.379-5.882V11.713h-4.668z"/></symbol><symbol id="pcc-icon-textSign" viewBox="0 0 52 52"><path d="M14.142 14.29a.49.49 0 00.174.221.428.428 0 00.24.071h6.021v19.834c0 .095.022.177.066.247a.438.438 0 00.232.168c.11.041.259.076.447.106.187.029.413.044.678.044.276 0 .504-.015.686-.044.182-.029.328-.065.438-.106a.446.446 0 00.232-.168.458.458 0 00.066-.247V14.582h6.021a.43.43 0 00.24-.071.554.554 0 00.182-.221c.05-.1.085-.233.107-.398.022-.165.033-.359.033-.583 0-.224-.011-.421-.033-.592a1.439 1.439 0 00-.107-.415.539.539 0 00-.182-.23.43.43 0 00-.24-.071H14.557a.43.43 0 00-.24.071.487.487 0 00-.174.23c-.044.106-.08.245-.107.415a3.706 3.706 0 00-.041.592c0 .224.014.418.041.583.027.165.063.298.108.398zm26.482 8.495a6.116 6.116 0 00-1.2-2.26c-.545-.642-1.24-1.152-2.086-1.532-.846-.379-1.87-.569-3.073-.569-1.124 0-2.14.193-3.047.578a6.44 6.44 0 00-2.324 1.657c-.641.72-1.132 1.596-1.473 2.628-.341 1.032-.511 2.196-.511 3.49 0 1.362.164 2.556.494 3.583.329 1.027.817 1.881 1.464 2.561.647.681 1.444 1.194 2.392 1.54.948.346 2.052.519 3.311.519.726 0 1.41-.053 2.051-.159a16.835 16.835 0 001.694-.36 8.255 8.255 0 001.192-.41c.306-.139.491-.24.553-.301l.153-.192.085-.226.043-.285.017-.377c0-.201-.009-.371-.026-.511s-.043-.248-.077-.327a.377.377 0 00-.36-.235c-.137 0-.339.059-.608.176-.268.117-.61.248-1.027.393-.416.145-.909.276-1.48.393-.57.117-1.22.176-1.95.176-.924 0-1.705-.128-2.344-.385-.639-.257-1.158-.625-1.557-1.105s-.684-1.055-.856-1.724c-.171-.67-.256-1.423-.256-2.26h10.091c.285 0 .539-.092.761-.276.222-.184.334-.494.334-.929v-.502c0-.982-.128-1.906-.383-2.771zm-10.802 2.453a6.097 6.097 0 01.325-1.766 4.654 4.654 0 01.822-1.482 3.961 3.961 0 011.319-1.021c.525-.257 1.136-.385 1.833-.385 1.359 0 2.384.413 3.075 1.239.691.826 1.019 1.964.985 3.415h-8.359zM11.007 39.999h29.994v-3.011H11.007v3.011zm1.985-5.014l1-2 1 2h2l-2-3 2-3h-2l-1 2-1-2h-2l2 3-2 3h2z"/></symbol><symbol id="pcc-icon-texttool" viewBox="0 0 52 52"><path d="M33.281 13.259v-1.968H18.718v1.968h4.821V38.74h-4.821v1.968h14.563V38.74h-5.775V13.259z"/></symbol><symbol id="pcc-icon-thumbnails" viewBox="0 0 52 52"><path d="M29.4 11.381v11.698h11.656V11.381H29.4zM11.924 40.62h11.648V28.921H11.924V40.62zm0-17.541h11.648V11.381H11.924v11.698zM29.4 40.62h11.656V28.921H29.4V40.62z"/></symbol><symbol id="pcc-icon-triangle-down" viewBox="0 0 52 52"><path d="M39.5 11.515l-27-.004L26 40.488l13.5-28.974z"/></symbol><symbol id="pcc-icon-triangle-up" viewBox="0 0 52 52"><path d="M39.5 40.485l-27 .004L26 11.512l13.5 28.974z"/></symbol><symbol id="pcc-icon-unknown" viewBox="0 0 52 52"><path d="M27.61 31.54v2.92a.56.56 0 01-.17.42.6.6 0 01-.44.12h-3a.6.6 0 01-.43-.16.56.56 0 01-.17-.42v-2.88a.56.56 0 01.17-.42A.6.6 0 0124 31h3a.6.6 0 01.43.16.56.56 0 01.18.38zm4.83-9a4.5 4.5 0 01-.28 1.64 3.31 3.31 0 01-.86 1.26 8.81 8.81 0 01-1 .8q-.41.27-1.12.66t-.88.51a2.36 2.36 0 00-.49.44.81.81 0 00-.22.53v.58a.56.56 0 01-.17.42.6.6 0 01-.43.16H24a.6.6 0 01-.43-.16.56.56 0 01-.17-.42v-1.28a3.37 3.37 0 01.2-1.18 3.24 3.24 0 01.45-.87 3.07 3.07 0 01.74-.65 7.8 7.8 0 01.77-.46l.84-.38a7.41 7.41 0 001.42-.78 1.08 1.08 0 00.42-.89 1.55 1.55 0 00-.82-1.3 3.22 3.22 0 00-1.8-.54 3.15 3.15 0 00-1.79.49 8.48 8.48 0 00-1.51 1.51.56.56 0 01-.47.22.6.6 0 01-.36-.11l-2-1.49a.52.52 0 01-.23-.36.54.54 0 01.09-.42A7.42 7.42 0 0125.88 17a7.12 7.12 0 014.5 1.63 4.85 4.85 0 012.07 3.87zm-6.94-8.21a12.11 12.11 0 00-4.69.93A12.24 12.24 0 0017 17.75a11.76 11.76 0 00-2.58 3.72 11.14 11.14 0 000 9.06A11.76 11.76 0 0017 34.25a12.24 12.24 0 003.85 2.49 12.3 12.3 0 009.38 0A12.24 12.24 0 0034 34.25a11.76 11.76 0 002.58-3.72 11.14 11.14 0 000-9.06A11.76 11.76 0 0034 17.75a12.24 12.24 0 00-3.85-2.49 12.11 12.11 0 00-4.65-.93zM40 26a13.33 13.33 0 01-1.94 7 14.2 14.2 0 01-5.28 5.1 15 15 0 01-14.56 0 14.2 14.2 0 01-5.28-5.1 13.67 13.67 0 010-14.05 14.2 14.2 0 015.28-5.1 15 15 0 0114.56 0A14.2 14.2 0 0138.06 19 13.33 13.33 0 0140 26z" fill="#7d7f85"/></symbol><symbol id="pcc-icon-updown" viewBox="0 0 52 52"><path d="M26.58 24.157l-7.492-9.92-7.597 9.955 4.776-.011.057 13.583 5.175.004-.057-13.599 5.139-.012zm8.973 3.466l-.056-13.388-5.175-.004.056 13.404-4.959.011 7.492 9.92 7.597-9.955-4.956.011z"/></symbol><symbol id="pcc-icon-view" viewBox="0 0 52 52"><path fill-rule="evenodd" d="M25.925 38.345c-8.07 0-14.972-9.134-14.972-12.472s6.109-12.218 14.783-12.218c8.561 0 15.311 8.833 15.311 12.079 0 3.246-7.052 12.611-15.123 12.611zm-.168-20.649c-6.138 0-10.462 5.776-10.462 8.296 0 2.521 4.884 8.402 10.596 8.402 5.711 0 10.702-6.056 10.702-8.506s-4.777-8.191-10.836-8.191zm.095 13.907c-3.248 0-5.881-2.619-5.881-5.85s2.633-5.85 5.881-5.85 5.881 2.619 5.881 5.85-2.633 5.85-5.881 5.85z" clip-rule="evenodd"/></symbol><symbol id="pcc-icon-wholeword" viewBox="0 0 52 52"><path d="M26.061 21.626l3.714 13.866h3.994l4.528-18.547h-3.79L31.645 29.9l-3.269-12.955h-4.477l-3.409 12.74-2.811-12.74h-3.854l4.451 18.547h4.083l3.701-13.866zm-12.98-10.484v2.855h25.838v-2.855H13.08zm0 29.716h25.838v-2.855H13.08v2.855z"/></symbol><symbol id="pcc-icon-wildcard" viewBox="0 0 52 52"><path d="M25.773 30.906l5.572 9.157 6.316-4.148a94.81 94.81 0 00-2.353-2.751l-4.953-5.543c4.018-.657 7.554-1.327 10.608-2.012l-2.188-7.433a120.68 120.68 0 00-6.852 2.875c-1.816.849-3 1.383-3.55 1.601.743-5.337 1.115-9.005 1.115-11.004H22.14c0 2.82.33 6.46.991 10.922-2.834-1.75-6.054-3.352-9.659-4.804l-2.435 7.227c.743.274 2.284.698 4.623 1.273 3.247.794 5.215 1.246 5.903 1.355-.221.22-.757.739-1.61 1.56a105.169 105.169 0 00-6.192 6.365l6.233 4.805c2.174-3.34 4.1-6.488 5.779-9.445z"/></symbol><symbol id="pcc-icon-wrench" viewBox="0 0 52 52"><path d="M30.216 30.017s4.557.688 7.517-2.51c4.676-5.053 1.977-10.277 1.977-10.277l-6.078 6.136s-2.486 1.074-4.235-.693c-1.75-1.767-.686-4.277-.686-4.277l6.077-6.136S28.835 9.617 24.5 14.145c-3.172 3.313-2.487 7.59-2.487 7.59l-9.143 9.231s-3.33 3.914.443 7.724 7.65.448 7.65.448l9.253-9.121z"/></symbol><symbol id="pcc-icon-x" viewBox="0 0 52 52"><path d="M38.11 15.665a.969.969 0 00.301-.427c.052-.158.079-.301.079-.427 0-.274-.122-.617-.365-1.028a6.777 6.777 0 00-.919-1.202 7.08 7.08 0 00-1.221-1.028c-.444-.295-.856-.443-1.237-.443-.211 0-.396.037-.555.111a1.49 1.49 0 00-.428.301l-8.783 8.764-8.846-8.859c-.254-.274-.539-.411-.856-.411-.296 0-.655.127-1.078.38-.423.253-.83.565-1.221.933-.391.369-.729.77-1.015 1.202-.285.433-.428.849-.428 1.25 0 .169.042.338.127.506.084.169.179.316.285.443l8.783 8.796-8.878 8.828c-.254.253-.38.538-.38.854 0 .274.121.623.365 1.044.243.422.549.828.919 1.218.369.391.771.728 1.205 1.012.433.285.84.427 1.221.427.19 0 .37-.037.539-.111a1.45 1.45 0 00.444-.3l8.815-8.733 8.846 8.859c.127.106.259.195.396.269.137.074.29.111.46.111.275 0 .623-.127 1.046-.38a7.109 7.109 0 001.221-.933 6.568 6.568 0 001.015-1.218c.285-.443.428-.854.428-1.234a1.347 1.347 0 00-.412-.981L29.2 24.525l8.91-8.859z"/></symbol><symbol id="pcc-icon-zoomin" viewBox="0 0 52 52"><path d="M37.181 22.688h-7.887V14.82a3.317 3.317 0 00-3.308-3.326h-.001a3.317 3.317 0 00-3.309 3.326v7.868H14.82a3.317 3.317 0 00-3.326 3.309v.001a3.316 3.316 0 003.326 3.308h7.856v7.875a3.317 3.317 0 003.309 3.326h.001a3.316 3.316 0 003.308-3.326v-7.875h7.887a3.317 3.317 0 003.326-3.308v-.001a3.317 3.317 0 00-3.326-3.309z"/></symbol><symbol id="pcc-icon-zoomout" viewBox="0 0 52 52"><path d="M14.805 22.686h22.391a3.321 3.321 0 013.33 3.313V26a3.321 3.321 0 01-3.33 3.313H14.805A3.321 3.321 0 0111.475 26v-.001a3.321 3.321 0 013.33-3.313z"/></symbol></svg>